<?xml version="1.0" standalone="no"?>
<!DOCTYPE svg PUBLIC "-//W3C//DTD SVG 1.1//EN" "http://www.w3.org/Graphics/SVG/1.1/DTD/svg11.dtd" >
<!--
2013-9-30: Created.
-->
<svg>
<metadata>
Created by iconfont
</metadata>
<defs>

<font id="iconfont" horiz-adv-x="1024" >
  <font-face
    font-family="iconfont"
    font-weight="500"
    font-stretch="normal"
    units-per-em="1024"
    ascent="896"
    descent="-128"
  />
    <missing-glyph />
    
    <glyph glyph-name="globe" unicode="&#59051;" d="M512 822.857143c242.285714 0 438.857143-196.571429 438.857143-438.857143s-196.571429-438.857143-438.857143-438.857143S73.142857 141.714286 73.142857 384 269.714286 822.857143 512 822.857143z m156.562286-297.728c-4.571429-3.437714-7.424-9.728-13.129143-10.861714 2.852571 0.585143 5.705143 10.861714 7.424 13.129142 3.437714 3.986286 8.009143 6.290286 12.580571 8.557715 9.728 3.986286 19.419429 5.156571 29.696 6.838857 9.728 2.304 21.723429 2.304 29.147429-6.290286-1.718857 1.718857 11.995429 13.714286 13.714286 14.299429 5.156571 2.852571 13.714286 1.718857 17.152 6.838857 1.133714 1.718857 1.133714 12.580571 1.133714 12.580571-9.728-1.133714-13.129143 8.009143-13.714286 16.018286 0-0.585143-1.133714-2.304-3.437714-4.571429 0.585143 8.557714-10.276571 2.304-14.299429 3.437715-13.129143 3.437714-11.446857 12.580571-15.433143 22.272-2.304 5.156571-8.557714 6.838857-10.861714 11.995428-2.304 3.437714-3.437714 10.861714-8.557714 11.446857-3.437714 0.585143-9.728-11.995429-10.861714-11.446857-5.156571 2.852571-7.424-1.133714-11.446858-3.437714-3.437714-2.304-6.290286-1.133714-9.728-2.852571 10.276571 3.437714-4.571429 9.142857-9.728 8.009142 8.009143 2.304 3.986286 10.861714-0.585142 14.848h2.852571c-1.133714 5.156571-17.152 9.728-22.272 13.129143s-32.585143 9.142857-38.290286 5.705143c-6.838857-3.986286 1.718857-15.433143 1.718857-21.138286 0.585143-6.838857-6.838857-8.557714-6.838857-14.299428 0-9.728 18.285714-8.009143 13.714286-21.138286-2.852571-8.009143-13.714286-9.728-18.285714-16.018286-4.571429-5.705143 0.585143-16.018286 5.156571-20.004571 4.571429-3.437714-8.009143-9.142857-9.728-10.276571-9.728-4.571429-17.152 9.728-19.419428 18.285714-1.718857 6.290286-2.304 13.714286-9.142858 17.152-3.437714 1.133714-14.299429 2.852571-16.566857-0.585143-3.437714 8.557714-15.433143 11.995429-23.442285 14.848-11.446857 3.986286-21.138286 3.986286-33.133715 2.304 3.986286 0.585143-1.133714 18.285714-10.861714 15.433143 2.852571 5.705143 1.718857 11.995429 2.852571 17.700571a32.438857 32.438857 0 0 0 6.838858 13.129143c1.133714 2.304 13.714286 15.433143 9.728 16.018286 9.728-1.133714 20.553143-1.718857 28.562285 6.290286 5.156571 5.156571 7.424 13.714286 12.580572 19.419428 7.424 8.557714 16.566857-2.304 24.576-2.852571 11.446857-0.585143 10.861714 11.995429 4.571428 17.700571 7.424-0.585143 1.133714 13.129143-2.852571 14.848-5.156571 1.718857-24.576-3.437714-14.299429-7.424-2.304 1.133714-16.018286-27.428571-23.990857-13.129143-2.304 2.852571-3.437714 14.848-8.557714 15.433143-4.571429 0-7.424-5.156571-9.142857-8.557714 2.852571 7.424-16.018286 12.580571-20.004572 13.129143 8.557714 5.705143 1.718857 11.995429-4.571428 15.433143-4.571429 2.852571-18.870857 5.156571-22.857143 0.585142-10.861714-13.129143 11.446857-14.848 17.152-18.285714 1.718857-1.133714 8.557714-5.156571 4.571428-8.009143-3.437714-1.718857-13.714286-4.571429-14.848-6.838857-3.437714-5.156571 3.986286-10.861714-1.133714-16.018286-5.156571 5.156571-5.156571 13.714286-9.142857 19.419429 5.156571-6.290286-20.553143-2.852571-20.004571-2.852571-8.557714 0-22.272-5.705143-28.562286 2.852571-1.133714 2.304-1.133714 15.433143 2.304 12.580571-5.156571 3.986286-8.557714 8.009143-11.995429 10.276572a347.428571 347.428571 0 0 1-53.723428-23.442286 9.508571 9.508571 0 0 1 6.838857 0.585143c4.571429 1.718857 8.557714 4.571429 13.129143 6.838857 5.705143 2.304 17.700571 9.142857 23.990857 3.986286 0.585143 1.133714 2.304 2.304 2.852571 2.852571 3.986286-4.571429 8.009143-9.142857 11.446857-14.299428-4.571429 2.304-11.995429 1.133714-17.152 0.585143-3.986286-1.133714-10.861714-2.304-12.580571-6.838858 1.718857-2.852571 3.986286-7.424 2.852571-10.276571-7.424 5.156571-13.129143 13.714286-23.442285 14.848-4.571429 0-9.142857 0-12.580572-0.585143a371.2 371.2 0 0 1-134.290285-126.866286 16.164571 16.164571 0 0 1 6.838857-4.571428c5.705143-1.718857 0-18.285714 10.861714-9.728 3.437714-2.852571 3.986286-6.838857 1.718857-10.861714 0.585143 0.585143 23.442286-14.299429 25.161143-15.433143 3.986286-3.437714 10.276571-7.424 11.995429-11.995429 1.133714-3.986286-2.304-8.557714-5.705143-10.276571-0.585143 1.133714-9.142857 9.728-10.276572 7.424-1.718857-2.852571 0-18.285714 6.290286-17.700572-9.142857-0.585143-5.156571-35.986286-7.424-42.861714 0-0.585143 1.133714-0.585143 1.133714-0.585143-1.718857-6.838857 3.986286-33.718857 15.433143-30.866286-7.424-1.718857 13.129143-28.013714 16.018286-29.696 7.424-5.156571 16.018286-8.557714 21.138286-16.018285 5.705143-8.009143 5.705143-20.004571 13.714285-26.294857-2.304-6.838857 11.995429-14.848 11.446857-24.576-1.133714-0.585143-1.718857-0.585143-2.852571-1.133715 2.852571-8.009143 13.714286-8.009143 17.700571-15.433143 2.304-4.571429 0-15.433143 7.424-13.129142 1.133714 12.580571-7.424 25.161143-13.714285 35.437714-3.437714 5.705143-6.838857 10.861714-9.728 16.566857-2.852571 5.156571-3.437714 11.446857-5.705143 17.152 2.304-0.585143 14.848-5.156571 13.714286-6.838857-4.571429-11.446857 18.285714-31.414857 24.576-38.838857 1.718857-1.718857 14.848-18.870857 8.009142-18.870857 7.424 0 17.700571-11.446857 21.138286-17.152 5.156571-8.557714 3.986286-19.419429 7.424-28.562286 3.437714-11.446857 19.419429-16.566857 28.562286-21.723429 8.009143-3.986286 14.848-9.728 22.857143-12.580571 11.995429-4.571429 14.848-0.585143 25.161143 1.133714 14.848 2.304 16.566857-14.299429 28.562285-20.553143 7.424-3.986286 23.442286-9.728 31.414857-6.290285-3.437714-1.133714 11.995429-24.576 13.129143-26.294858 5.156571-6.838857 14.848-10.276571 20.553143-17.152a8.923429 8.923429 0 0 1 3.986286 5.156572c-2.304-6.290286 8.557714-18.285714 14.299428-17.152 6.290286 1.133714 8.009143 13.714286 8.009143 18.285714-11.446857-5.705143-21.723429-1.133714-28.013714 10.276572-1.133714 2.852571-10.276571 18.870857-2.304 18.870857 10.861714 0 3.437714 8.557714 2.304 16.566857s-9.142857 13.129143-13.129143 20.004571c-3.437714-6.838857-14.848-5.156571-18.285714 0.585143 0-1.718857-1.718857-4.571429-1.718857-6.838857-2.852571 0-5.705143-0.585143-8.557715 0.585143 1.133714 6.838857 1.718857 15.433143 3.437715 22.857143 2.852571 10.276571 21.723429 30.281143-2.852572 29.147428-8.557714-0.585143-11.995429-3.986286-14.848-11.446857-2.852571-6.838857-1.718857-13.129143-9.728-16.566857-5.156571-2.304-22.272-1.133714-27.428571 1.718857-10.861714 6.290286-18.285714 26.294857-18.285714 37.705143-0.585143 15.433143 7.424 29.147429 0 43.446857 3.437714 2.852571 6.838857 8.557714 10.861714 11.446857 3.437714 2.304 7.424-1.718857 9.142857 5.156572-1.718857 1.133714-3.986286 3.437714-4.571429 3.437714 8.557714-3.986286 24.576 5.705143 32 0 4.571429-3.437714 9.728-4.571429 12.580572 1.133714 0.585143 1.718857-3.986286 8.557714-1.718857 13.129143 1.718857-9.728 8.009143-11.446857 16.566857-5.156571 3.437714-3.437714 12.580571-2.304 18.870857-5.705143 6.290286-3.986286 7.424-10.276571 14.848-1.718857 4.571429-6.838857 5.156571-6.838857 6.838857-13.714286 1.718857-6.290286 5.156571-22.272 10.861714-25.161143 11.995429-7.424 9.142857 12.580571 8.009143 19.419429-0.585143 0.585143-0.585143 19.419429-1.133714 19.419428-18.285714 3.986286-11.446857 18.285714-1.133714 28.013715 1.718857 1.133714 14.848 5.705143 20.553143 10.276571 5.156571 4.571429 11.446857 12.580571 8.557714 20.004571 2.852571 0 5.156571 2.304 6.290286 5.156572-1.718857 0.585143-8.557714 6.290286-9.728 5.705143 3.986286 2.304 3.437714 5.705143 1.133714 9.142857 5.705143 3.437714 2.852571 9.728 8.557714 11.995428 6.290286-8.557714 18.870857 1.133714 12.580572 8.009143 5.705143 8.009143 18.870857 3.986286 22.272 11.446857 8.557714-2.304 2.304 8.557714 6.838857 14.848 3.986286 5.156571 10.861714 5.156571 16.018285 8.009143 0-0.585143 14.299429 8.009143 9.728 8.557715 9.728-1.133714 29.147429 9.142857 14.299429 17.700571 2.304 5.156571-5.156571 7.424-10.276571 8.557714 3.986286 1.133714 9.142857-1.133714 12.580571 1.133715 7.424 5.156571 2.304 7.424-3.986286 9.142857-8.009143 2.304-18.285714-2.852571-24.576-6.838857z m-93.147429-501.138286a362.496 362.496 0 0 1 200.557714 107.995429c-3.437714 3.437714-9.728 2.304-14.299428 4.571428-4.571429 1.718857-8.009143 3.437714-13.714286 4.571429 1.133714 11.446857-11.446857 15.433143-19.419428 21.138286-7.424 5.705143-11.995429 11.995429-22.857143 9.728-1.133714-0.585143-12.580571-4.571429-10.276572-6.838858-7.424 6.290286-10.861714 9.728-20.553143 12.580572-9.142857 2.852571-15.433143 14.299429-24.576 3.986286-4.571429-4.571429-2.304-11.446857-4.571428-16.018286-7.424 6.290286 6.838857 13.714286 1.133714 20.553143-6.838857 8.009143-18.870857-5.156571-24.576-8.557715-3.437714-2.852571-7.424-3.986286-9.728-7.424-2.852571-3.986286-3.986286-9.142857-6.290286-13.129142-1.718857 4.571429-11.446857 3.437714-11.995428 6.838857 2.304-13.714286 2.304-28.013714 5.156571-41.728 1.718857-8.009143 0-21.138286-6.838857-27.428572s-15.433143-13.129143-16.566857-22.857143c-1.133714-6.838857 0.585143-13.129143 6.838857-14.848 0.585143-8.557714-9.142857-14.848-8.557714-23.990857 0-0.585143 0.585143-6.290286 1.133714-9.142857z"  horiz-adv-x="1024" />

    
    <glyph glyph-name="calendar" unicode="&#58936;" d="M109.714286-54.857143h164.571428v164.571429H109.714286V-54.857143z m201.142857 0h182.857143v164.571429h-182.857143V-54.857143zM109.714286 146.285714h164.571428v182.857143H109.714286v-182.857143z m201.142857 0h182.857143v182.857143h-182.857143v-182.857143z m-201.142857 219.428572h164.571428V530.285714H109.714286v-164.571428zM530.285714-54.857143h182.857143v164.571429h-182.857143V-54.857143z m-219.428571 420.571429h182.857143V530.285714h-182.857143v-164.571428z m438.857143-420.571429H914.285714v164.571429h-164.571428V-54.857143z m-219.428572 201.142857h182.857143v182.857143h-182.857143v-182.857143zM329.142857 640V804.571429c0 9.728-8.557714 18.285714-18.285714 18.285714h-36.571429c-9.728 0-18.285714-8.557714-18.285714-18.285714V640c0-9.728 8.557714-18.285714 18.285714-18.285714h36.571429c9.728 0 18.285714 8.557714 18.285714 18.285714z m420.571429-493.714286H914.285714v182.857143h-164.571428v-182.857143z m-219.428572 219.428572h182.857143V530.285714h-182.857143v-164.571428z m219.428572 0H914.285714V530.285714h-164.571428v-164.571428zM768 640V804.571429c0 9.728-8.557714 18.285714-18.285714 18.285714h-36.571429c-9.728 0-18.285714-8.557714-18.285714-18.285714V640c0-9.728 8.557714-18.285714 18.285714-18.285714h36.571429c9.728 0 18.285714 8.557714 18.285714 18.285714z m219.428571 36.571429v-731.428572c0-40.009143-33.133714-73.142857-73.142857-73.142857H109.714286c-40.009143 0-73.142857 33.133714-73.142857 73.142857V676.571429c0 40.009143 33.133714 73.142857 73.142857 73.142857h73.142857V804.571429C182.857143 854.857143 224 896 274.285714 896h36.571429C361.142857 896 402.285714 854.857143 402.285714 804.571429V749.714286h219.428572V804.571429C621.714286 854.857143 662.857143 896 713.142857 896h36.571429C800 896 841.142857 854.857143 841.142857 804.571429V749.714286h73.142857c40.009143 0 73.142857-33.133714 73.142857-73.142857z"  horiz-adv-x="1024" />

    
    <glyph glyph-name="eye-slash" unicode="&#59009;" d="M317.148891 133.156571l44.580572 80.566858A255.817143 255.817143 0 0 0 256.001463 420.571429c0 45.129143 11.995429 89.709714 34.852571 128.585142C201.692891 503.442286 127.41632 431.433143 73.14432 347.428571c59.428571-92.013714 143.433143-169.142857 244.004571-214.272zM539.430034 566.857143a27.794286 27.794286 0 0 1-27.428571 27.428571c-95.414857 0-173.714286-78.299429-173.714286-173.714285 0-14.848 12.580571-27.428571 27.428572-27.428572s27.428571 12.580571 27.428571 27.428572A119.149714 119.149714 0 0 0 512.001463 539.428571a27.794286 27.794286 0 0 1 27.428571 27.428572z m207.433143 109.129143c0-1.133714 0-3.986286-0.585143-5.156572-120.576-215.442286-240.018286-432.018286-360.557714-647.424l-28.013714-50.870857a19.017143 19.017143 0 0 0-16.018286-9.142857c-10.276571 0-64.585143 33.133714-76.580571 40.009143a18.285714 18.285714 0 0 0-9.142858 16.018286c0 9.142857 19.419429 40.009143 25.161143 49.700571-110.848 50.285714-203.995429 136.009143-269.714285 238.848a72.448 72.448 0 0 0-11.446858 39.424c0 13.714286 3.986286 28.013714 11.446858 39.424 113.152 173.714286 289.718857 289.718857 500.553142 289.718857 34.304 0 69.156571-3.437714 102.838858-9.728l30.866285 55.442286a18.285714 18.285714 0 0 0 16.018286 9.142857c10.276571 0 64-33.133714 75.995429-40.009143 5.705143-3.437714 9.142857-9.142857 9.142857-15.433143zM768.001463 420.571429a255.634286 255.634286 0 0 0-164.571429-238.848l160 286.866285c2.852571-16.018286 4.571429-32 4.571429-48.018285z m256-73.142858c0-14.848-3.986286-26.843429-11.446857-39.424-17.700571-29.147429-40.009143-57.161143-62.281143-82.870857C838.255177 96.548571 683.996891 18.285714 512.001463 18.285714l42.276571 75.446857C720.56832 108.032 861.697463 209.152 950.858606 347.428571c-42.276571 65.718857-96.585143 123.428571-161.133715 168.009143l35.986286 64c70.838857-47.433143 142.299429-118.857143 186.843429-192.585143 7.424-12.580571 11.446857-24.576 11.446857-39.424z"  horiz-adv-x="1024" />

    
    <glyph glyph-name="arrow-down" unicode="&#58899;" d="M957.147429 420.571429c0-19.419429-8.009143-38.290286-21.138286-51.419429L564.004571-3.401143c-13.714286-13.129143-32.585143-21.138286-52.004571-21.138286s-38.290286 8.009143-51.419429 21.138286L88.576 369.152C74.861714 382.281143 66.852571 401.152 66.852571 420.571429s8.009143 38.290286 21.723429 52.004571l42.276571 42.861714c13.714286 13.129143 32.585143 21.138286 52.004572 21.138286s38.290286-8.009143 51.419428-21.138286L402.285714 347.428571V749.714286c0 40.009143 33.133714 73.142857 73.142857 73.142857h73.142858c40.009143 0 73.142857-33.133714 73.142857-73.142857v-402.285715l168.009143 168.009143c13.129143 13.129143 32 21.138286 51.419428 21.138286s38.290286-8.009143 52.004572-21.138286l42.861714-42.861714c13.129143-13.714286 21.138286-32.585143 21.138286-52.004571z"  horiz-adv-x="1024" />

    
    <glyph glyph-name="arrow-up" unicode="&#58902;" d="M957.147429 341.138286c0-19.419429-8.009143-37.705143-21.138286-51.419429l-42.861714-42.861714c-13.714286-13.714286-32.585143-21.723429-52.004572-21.723429s-38.290286 8.009143-51.419428 21.723429L621.714286 414.281143v-402.285714C621.714286-29.147429 587.410286-54.857143 548.571429-54.857143h-73.142858c-38.838857 0-73.142857 25.709714-73.142857 66.852572v402.285714L234.276571 246.857143a71.68 71.68 0 0 0-102.838857 0l-42.861714 42.861714c-13.714286 13.714286-21.723429 32-21.723429 51.419429s8.009143 38.290286 21.723429 52.004571L460.580571 765.147429C473.709714 778.861714 492.580571 786.285714 512 786.285714s38.290286-7.424 52.004571-21.138285L936.009143 393.142857c13.129143-13.714286 21.138286-32.585143 21.138286-52.004571z"  horiz-adv-x="1024" />

    
    <glyph glyph-name="pause" unicode="&#59117;" d="M950.857143 786.285714v-804.571428c0-20.004571-16.566857-36.571429-36.571429-36.571429h-292.571428c-20.004571 0-36.571429 16.566857-36.571429 36.571429V786.285714c0 20.004571 16.566857 36.571429 36.571429 36.571429h292.571428c20.004571 0 36.571429-16.566857 36.571429-36.571429zM438.857143 786.285714v-804.571428c0-20.004571-16.566857-36.571429-36.571429-36.571429H109.714286c-20.004571 0-36.571429 16.566857-36.571429 36.571429V786.285714c0 20.004571 16.566857 36.571429 36.571429 36.571429h292.571428c20.004571 0 36.571429-16.566857 36.571429-36.571429z"  horiz-adv-x="1024" />

    
    <glyph glyph-name="play" unicode="&#59129;" d="M900.571429 366.299429L141.714286-55.405714c-17.700571-9.728-32-1.133714-32 18.870857v841.142857c0 20.004571 14.299429 28.562286 32 18.870857l758.857143-421.705143c17.700571-9.728 17.700571-25.709714 0-35.437714z"  horiz-adv-x="1024" />

    
    <glyph glyph-name="random" unicode="&#59136;" d="M380.563749 621.129143c-32-49.152-55.442286-102.290286-78.299429-156.013714-33.133714 69.156571-69.705143 138.276571-156.013714 138.276571h-128a18.066286 18.066286 0 0 0-18.285715 18.285714v109.714286c0 10.276571 8.009143 18.285714 18.285715 18.285714h128c101.705143 0 176.566857-47.433143 234.276571-128.585143zM1024.001463 164.571429a18.944 18.944 0 0 0-5.156572-13.129143l-182.857142-182.857143a19.017143 19.017143 0 0 0-13.129143-5.156572 18.797714 18.797714 0 0 0-18.285715 18.285715v109.714285c-169.728 0-274.285714-20.004571-380.013714 128.585143 31.414857 49.152 54.857143 102.290286 77.714286 156.013715 33.133714-69.156571 69.705143-138.276571 156.013714-138.276572h146.285714v109.714286c0 10.276571 8.009143 18.285714 18.285715 18.285714 5.156571 0 9.728-2.304 13.714285-5.705143l182.272-182.272a19.017143 19.017143 0 0 0 5.156572-13.129143z m0 512a18.944 18.944 0 0 0-5.156572-13.129143l-182.857142-182.857143a19.017143 19.017143 0 0 0-13.129143-5.156572 18.395429 18.395429 0 0 0-18.285715 18.285715V603.428571h-146.285714c-75.995429 0-112.018286-52.004571-144.018286-113.700571-16.566857-32-30.866286-65.133714-44.580571-97.718857C406.273463 244.589714 331.96032 91.428571 146.250606 91.428571h-128a18.066286 18.066286 0 0 0-18.285715 18.285715v109.714285c0 10.276571 8.009143 18.285714 18.285715 18.285715h128c75.995429 0 112.018286 52.004571 144.018285 113.700571 16.566857 32 30.866286 65.133714 44.580572 97.718857C398.26432 596.553143 472.577463 749.714286 658.287177 749.714286h146.285714V859.428571c0 10.276571 8.009143 18.285714 18.285715 18.285715 5.156571 0 9.728-2.304 13.714285-5.705143l182.272-182.272a19.017143 19.017143 0 0 0 5.156572-13.129143z"  horiz-adv-x="1024" />

    
    <glyph glyph-name="step-backward" unicode="&#59170;" d="M778.861714 815.433143c14.299429 14.299429 25.709714 9.142857 25.709715-10.861714v-841.142858c0-20.004571-11.446857-25.161143-25.709715-10.861714L373.138286 358.290286A33.28 33.28 0 0 0 365.714286 369.152V-18.285714c0-20.004571-16.566857-36.571429-36.571429-36.571429H256c-20.004571 0-36.571429 16.566857-36.571429 36.571429V786.285714c0 20.004571 16.566857 36.571429 36.571429 36.571429h73.142857c20.004571 0 36.571429-16.566857 36.571429-36.571429v-387.437714a33.645714 33.645714 0 0 0 7.424 10.861714z"  horiz-adv-x="1024" />

    
    <glyph glyph-name="step-forward" unicode="&#59171;" d="M245.138286-47.433143c-14.299429-14.299429-25.709714-9.142857-25.709715 10.861714v841.142858c0 20.004571 11.446857 25.161143 25.709715 10.861714l405.723428-405.723429a33.28 33.28 0 0 0 7.424-10.861714V786.285714c0 20.004571 16.566857 36.571429 36.571429 36.571429h73.142857c20.004571 0 36.571429-16.566857 36.571429-36.571429v-804.571428c0-20.004571-16.566857-36.571429-36.571429-36.571429h-73.142857c-20.004571 0-36.571429 16.566857-36.571429 36.571429V369.152a33.645714 33.645714 0 0 0-7.424-10.861714z"  horiz-adv-x="1024" />

    
    <glyph glyph-name="stop" unicode="&#59175;" d="M950.857143 786.285714v-804.571428c0-20.004571-16.566857-36.571429-36.571429-36.571429H109.714286c-20.004571 0-36.571429 16.566857-36.571429 36.571429V786.285714c0 20.004571 16.566857 36.571429 36.571429 36.571429h804.571428c20.004571 0 36.571429-16.566857 36.571429-36.571429z"  horiz-adv-x="1024" />

    
    <glyph glyph-name="volume-off" unicode="&#59223;" d="M731.428571 694.857143v-621.714286c0-20.004571-16.566857-36.571429-36.571428-36.571428a36.205714 36.205714 0 0 0-25.709714 10.861714L478.866286 237.714286H329.142857c-20.004571 0-36.571429 16.566857-36.571428 36.571428v219.428572c0 20.004571 16.566857 36.571429 36.571428 36.571428h149.723429l190.281143 190.281143A36.425143 36.425143 0 0 0 694.857143 731.428571c20.004571 0 36.571429-16.566857 36.571428-36.571428z"  horiz-adv-x="1024" />

    
    <glyph glyph-name="volume-down" unicode="&#59224;" d="M621.714286 694.857143v-621.714286c0-20.004571-16.566857-36.571429-36.571429-36.571428a36.205714 36.205714 0 0 0-25.709714 10.861714L369.152 237.714286H219.428571c-20.004571 0-36.571429 16.566857-36.571428 36.571428v219.428572c0 20.004571 16.566857 36.571429 36.571428 36.571428h149.723429l190.281143 190.281143A36.425143 36.425143 0 0 0 585.142857 731.428571c20.004571 0 36.571429-16.566857 36.571429-36.571428z m219.428571-310.857143c0-57.161143-34.852571-112.566857-88.576-134.290286a31.780571 31.780571 0 0 0-14.299428-2.852571c-20.004571 0-36.571429 16.018286-36.571429 36.571428 0 43.446857 66.304 31.414857 66.304 100.571429s-66.304 57.161143-66.304 100.571429c0 20.553143 16.566857 36.571429 36.571429 36.571428 4.571429 0 9.728-0.585143 14.299428-2.852571C806.290286 497.152 841.142857 441.161143 841.142857 384z"  horiz-adv-x="1024" />

    
    <glyph glyph-name="volume-up" unicode="&#59227;" d="M475.428571 694.857143v-621.714286c0-20.004571-16.566857-36.571429-36.571428-36.571428a36.205714 36.205714 0 0 0-25.709714 10.861714L222.866286 237.714286H73.142857c-20.004571 0-36.571429 16.566857-36.571428 36.571428v219.428572c0 20.004571 16.566857 36.571429 36.571428 36.571428h149.723429l190.281143 190.281143A36.425143 36.425143 0 0 0 438.857143 731.428571c20.004571 0 36.571429-16.566857 36.571428-36.571428z m219.428572-310.857143c0-57.161143-34.852571-112.566857-88.576-134.290286a31.780571 31.780571 0 0 0-14.299429-2.852571c-20.004571 0-36.571429 16.018286-36.571428 36.571428 0 43.446857 66.304 31.414857 66.304 100.571429s-66.304 57.161143-66.304 100.571429c0 20.553143 16.566857 36.571429 36.571428 36.571428 4.571429 0 9.728-0.585143 14.299429-2.852571C660.004571 497.152 694.857143 441.161143 694.857143 384z m146.285714 0c0-116.004571-69.705143-224-177.152-269.129143a42.349714 42.349714 0 0 0-14.299428-2.852571 36.937143 36.937143 0 0 0-37.156572 36.571428c0 16.018286 9.142857 26.843429 22.272 33.718857 15.433143 8.009143 29.696 14.848 43.446857 25.161143 56.576 41.142857 89.709714 106.861714 89.709715 176.566857s-33.133714 135.424-89.709715 176.566858c-13.714286 10.276571-28.013714 17.152-43.446857 25.161142-13.129143 6.838857-22.272 17.700571-22.272 33.718858 0 20.004571 16.566857 36.571429 36.571429 36.571428 5.156571 0 10.276571-1.133714 14.848-2.852571 107.446857-45.129143 177.152-153.161143 177.152-269.129143z m146.285714 0c0-175.433143-104.557714-334.299429-265.728-403.419429a42.861714 42.861714 0 0 0-14.848-2.852571c-20.004571 0-36.571429 16.566857-36.571428 36.571429 0 16.566857 8.557714 25.709714 22.272 33.718857 8.009143 4.571429 17.152 7.424 25.709714 11.995428 16.018286 8.557714 32 18.285714 46.848 29.147429 93.696 69.156571 149.138286 178.285714 149.138286 294.838857s-55.442286 225.718857-149.138286 294.838857a402.505143 402.505143 0 0 1-46.848 29.147429c-8.557714 4.571429-17.700571 7.424-25.709714 11.995428-13.714286 8.009143-22.272 17.152-22.272 33.718857 0 20.004571 16.566857 36.571429 36.571428 36.571429 5.156571 0 10.276571-1.133714 14.848-2.852571A439.186286 439.186286 0 0 0 987.428571 384z"  horiz-adv-x="1024" />

    
    <glyph glyph-name="minus" unicode="&#59106;" d="M914.285714 475.428571v-109.714285a54.857143 54.857143 0 0 0-54.857143-54.857143h-694.857142A54.857143 54.857143 0 0 0 109.714286 365.714286v109.714285A54.857143 54.857143 0 0 0 164.571429 530.285714h694.857142a54.857143 54.857143 0 0 0 54.857143-54.857143z"  horiz-adv-x="1024" />

    
    <glyph glyph-name="circle" unicode="&#58960;" d="M950.857143 384c0-242.285714-196.571429-438.857143-438.857143-438.857143S73.142857 141.714286 73.142857 384 269.714286 822.857143 512 822.857143s438.857143-196.571429 438.857143-438.857143z"  horiz-adv-x="1024" />

    
    <glyph glyph-name="clock-o" unicode="&#58961;" d="M585.142857 585.142857v-256c0-10.276571-8.009143-18.285714-18.285714-18.285714h-182.857143a18.066286 18.066286 0 0 0-18.285714 18.285714v36.571429c0 10.276571 8.009143 18.285714 18.285714 18.285714H512V585.142857c0 10.276571 8.009143 18.285714 18.285714 18.285714h36.571429c10.276571 0 18.285714-8.009143 18.285714-18.285714z m237.714286-201.142857c0 171.446857-139.446857 310.857143-310.857143 310.857143S201.142857 555.410286 201.142857 384s139.446857-310.857143 310.857143-310.857143 310.857143 139.446857 310.857143 310.857143z m128 0c0-242.285714-196.571429-438.857143-438.857143-438.857143S73.142857 141.714286 73.142857 384 269.714286 822.857143 512 822.857143s438.857143-196.571429 438.857143-438.857143z"  horiz-adv-x="1024" />

    
    <glyph glyph-name="history" unicode="&#59062;" d="M950.820571 384c0-241.700571-197.156571-438.857143-438.857142-438.857143a437.833143 437.833143 0 0 0-337.700572 158.281143 19.017143 19.017143 0 0 0 1.133714 24.576l78.299429 78.848a21.906286 21.906286 0 0 0 14.299429 5.156571 18.651429 18.651429 0 0 0 13.129142-6.838857A289.28 289.28 0 0 1 511.963429 91.465143c161.133714 0 292.571429 131.437714 292.571428 292.571428s-131.437714 292.571429-292.571428 292.571429A290.816 290.816 0 0 1 313.124571 598.308571l78.299429-78.848a35.254857 35.254857 0 0 0 8.009143-39.424 36.644571 36.644571 0 0 0-33.718857-22.857142h-256c-20.004571 0-36.571429 16.566857-36.571429 36.571428v256c0 14.848 9.142857 28.013714 22.857143 33.718857a35.254857 35.254857 0 0 0 39.424-8.009143l74.276571-73.728c80.566857 75.995429 189.696 121.161143 302.299429 121.161143 241.700571 0 438.857143-197.156571 438.857143-438.857143zM585.106286 548.571429v-256c0-10.276571-8.009143-18.285714-18.285715-18.285715h-182.857142a18.066286 18.066286 0 0 0-18.285715 18.285715v36.571428c0 10.276571 8.009143 18.285714 18.285715 18.285714H511.963429V548.571429c0 10.276571 8.009143 18.285714 18.285714 18.285714h36.571428c10.276571 0 18.285714-8.009143 18.285715-18.285714z"  horiz-adv-x="1024" />

    
    <glyph glyph-name="camera" unicode="&#58937;" d="M548.571429 512c90.843429 0 164.571429-73.728 164.571428-164.571429s-73.728-164.571429-164.571428-164.571428-164.571429 73.728-164.571429 164.571428 73.728 164.571429 164.571429 164.571429zM950.857143 749.714286c80.566857 0 146.285714-65.718857 146.285714-146.285715v-512c0-80.566857-65.718857-146.285714-146.285714-146.285714H146.285714c-80.566857 0-146.285714 65.718857-146.285714 146.285714V603.428571c0 80.566857 65.718857 146.285714 146.285714 146.285715h128l29.147429 77.714285C317.732571 865.133714 362.276571 896 402.285714 896h292.571429c40.009143 0 84.553143-30.866286 98.852571-68.571429L822.857143 749.714286H950.857143zM548.571429 91.428571c141.129143 0 256 114.870857 256 256s-114.870857 256-256 256-256-114.870857-256-256 114.870857-256 256-256z"  horiz-adv-x="1097" />

    
    <glyph glyph-name="group" unicode="&#59050;" d="M338.874514 384a202.313143 202.313143 0 0 1-151.442285-73.142857H110.851657C53.690514 310.857143 0.003657 338.285714 0.003657 401.700571 0.003657 448-1.7152 603.428571 70.842514 603.428571c11.995429 0 71.424-48.566857 148.553143-48.566857 26.294857 0 51.419429 4.571429 75.995429 13.129143A278.820571 278.820571 0 0 1 292.538514 530.285714c0-52.004571 16.566857-103.424 46.299429-146.285714zM950.8608 20.004571C950.8608-72.557714 889.713371-128 798.2848-128H298.865371C207.4368-128 146.289371-72.557714 146.289371 20.004571 146.289371 149.138286 176.570514 347.428571 343.994514 347.428571c19.419429 0 90.294857-79.433143 204.580572-79.433142S733.736229 347.428571 753.155657 347.428571C920.579657 347.428571 950.8608 149.138286 950.8608 20.004571zM365.717943 749.714286c0-80.566857-65.718857-146.285714-146.285714-146.285715S73.146514 669.147429 73.146514 749.714286s65.718857 146.285714 146.285715 146.285714 146.285714-65.718857 146.285714-146.285714z m402.285714-219.428572c0-121.161143-98.304-219.428571-219.428571-219.428571s-219.428571 98.304-219.428572 219.428571 98.304 219.428571 219.428572 219.428572 219.428571-98.304 219.428571-219.428572z m329.142857-128.585143C1097.146514 338.285714 1043.423086 310.857143 986.298514 310.857143h-76.580571a202.313143 202.313143 0 0 1-151.442286 73.142857A258.413714 258.413714 0 0 1 804.575086 530.285714a277.942857 277.942857 0 0 1-2.852572 37.705143A228.864 228.864 0 0 1 877.717943 554.861714C954.847086 554.861714 1014.275657 603.428571 1026.271086 603.428571c72.557714 0 70.838857-155.428571 70.838857-201.728zM1024.003657 749.714286c0-80.566857-65.718857-146.285714-146.285714-146.285715s-146.285714 65.718857-146.285714 146.285715 65.718857 146.285714 146.285714 146.285714 146.285714-65.718857 146.285714-146.285714z"  horiz-adv-x="1097" />

    
    <glyph glyph-name="smile-o" unicode="&#59158;" d="M721.152 281.709714C692.589714 189.696 608.585143 128 512 128s-180.553143 61.696-209.152 153.709714c-6.290286 19.419429 4.571429 39.424 23.990857 45.714286 18.870857 6.290286 39.424-4.571429 45.714286-23.990857C391.424 242.285714 448 201.142857 512 201.142857s120.576 41.142857 139.446857 102.290286a36.790857 36.790857 0 0 0 46.299429 23.990857 36.352 36.352 0 0 0 23.442285-45.714286zM438.857143 530.285714c0-40.557714-32.585143-73.142857-73.142857-73.142857s-73.142857 32.585143-73.142857 73.142857 32.585143 73.142857 73.142857 73.142857 73.142857-32.585143 73.142857-73.142857z m292.571428 0c0-40.557714-32.585143-73.142857-73.142857-73.142857s-73.142857 32.585143-73.142857 73.142857 32.585143 73.142857 73.142857 73.142857 73.142857-32.585143 73.142857-73.142857z m146.285715-146.285714c0 201.728-163.986286 365.714286-365.714286 365.714286S146.285714 585.728 146.285714 384s163.986286-365.714286 365.714286-365.714286 365.714286 163.986286 365.714286 365.714286z m73.142857 0c0-242.285714-196.571429-438.857143-438.857143-438.857143S73.142857 141.714286 73.142857 384 269.714286 822.857143 512 822.857143s438.857143-196.571429 438.857143-438.857143z"  horiz-adv-x="1024" />

    
    <glyph glyph-name="arrow-left" unicode="&#58900;" d="M932.571429 384v-73.142857c0-38.838857-25.709714-73.142857-66.852572-73.142857h-402.285714l167.424-168.009143a71.68 71.68 0 0 0 0-102.838857l-42.861714-43.446857c-13.129143-13.129143-32-21.138286-51.419429-21.138286s-38.290286 8.009143-52.004571 21.138286L112.566857 295.972571C99.437714 309.101714 91.428571 327.972571 91.428571 347.392s8.009143 38.290286 21.138286 52.004571L484.571429 770.816c13.714286 13.714286 32.585143 21.723429 52.004571 21.723429s37.705143-8.009143 51.419429-21.723429l42.861714-42.276571c13.714286-13.714286 21.723429-32.585143 21.723428-52.004572s-8.009143-38.290286-21.723428-52.004571l-167.424-167.424h402.285714c41.142857 0 66.852571-34.304 66.852572-73.142857z"  horiz-adv-x="1024" />

    
    <glyph glyph-name="arrow-right" unicode="&#58901;" d="M932.57088 347.428571a73.508571 73.508571 0 0 0-21.138286-52.004571L539.428023-76.580571c-13.714286-13.129143-32.585143-21.138286-52.004572-21.138286s-37.705143 8.009143-51.419428 21.138286L393.142309-33.718857c-13.714286 13.714286-21.723429 32.585143-21.723429 52.004571s8.009143 38.290286 21.723429 52.004572L560.566309 237.714286h-402.285715C117.137737 237.714286 91.428023 272.018286 91.428023 310.857143v73.142857c0 38.838857 25.709714 73.142857 66.852571 73.142857h402.285715L393.142309 625.152a71.68 71.68 0 0 0 0 102.838857l42.861714 42.861714c13.714286 13.714286 32 21.723429 51.419428 21.723429s38.290286-8.009143 52.004572-21.723429l372.004571-372.004571c13.714286-13.129143 21.138286-32 21.138286-51.419429z"  horiz-adv-x="1024" />

    
    <glyph glyph-name="ellipsis-h" unicode="&#58996;" d="M329.142857 475.428571v-109.714285A54.857143 54.857143 0 0 0 274.285714 310.857143h-109.714285A54.857143 54.857143 0 0 0 109.714286 365.714286v109.714285A54.857143 54.857143 0 0 0 164.571429 530.285714h109.714285A54.857143 54.857143 0 0 0 329.142857 475.428571z m292.571429 0v-109.714285a54.857143 54.857143 0 0 0-54.857143-54.857143h-109.714286A54.857143 54.857143 0 0 0 402.285714 365.714286v109.714285A54.857143 54.857143 0 0 0 457.142857 530.285714h109.714286a54.857143 54.857143 0 0 0 54.857143-54.857143z m292.571428 0v-109.714285a54.857143 54.857143 0 0 0-54.857143-54.857143h-109.714285a54.857143 54.857143 0 0 0-54.857143 54.857143v109.714285a54.857143 54.857143 0 0 0 54.857143 54.857143h109.714285a54.857143 54.857143 0 0 0 54.857143-54.857143z"  horiz-adv-x="1024" />

    
    <glyph glyph-name="floppy-o" unicode="&#59032;" d="M292.571429 18.285714h438.857142v219.428572H292.571429v-219.428572z m512 0h73.142857V530.285714c0 10.861714-9.728 34.304-17.152 41.728L699.977143 732.598857c-8.009143 8.009143-30.281143 17.152-41.728 17.152v-237.714286a54.857143 54.857143 0 0 0-54.857143-54.857142h-329.142857a54.857143 54.857143 0 0 0-54.857143 54.857142v237.714286h-73.142857v-731.428571h73.142857v237.714285a54.857143 54.857143 0 0 0 54.857143 54.857143h475.428571a54.857143 54.857143 0 0 0 54.857143-54.857143v-237.714285zM585.142857 548.571429v182.857142c0 9.728-8.557714 18.285714-18.285714 18.285715h-109.714286c-9.728 0-18.285714-8.557714-18.285714-18.285715v-182.857142c0-9.728 8.557714-18.285714 18.285714-18.285715h109.714286c9.728 0 18.285714 8.557714 18.285714 18.285715z m365.714286-18.285715v-530.285714a54.857143 54.857143 0 0 0-54.857143-54.857143h-768A54.857143 54.857143 0 0 0 73.142857 0v768A54.857143 54.857143 0 0 0 128 822.857143H658.285714c30.281143 0 72.009143-17.152 93.696-38.838857l160-160c21.723429-21.723429 38.838857-63.414857 38.838857-93.696z"  horiz-adv-x="1024" />

    
    <glyph glyph-name="desktop" unicode="&#58987;" d="M1024 329.142857v475.428572c0 9.728-8.557714 18.285714-18.285714 18.285714h-914.285715c-9.728 0-18.285714-8.557714-18.285714-18.285714v-475.428572c0-9.728 8.557714-18.285714 18.285714-18.285714h914.285715c9.728 0 18.285714 8.557714 18.285714 18.285714z m73.142857 475.428572v-621.714286c0-50.285714-41.142857-91.428571-91.428571-91.428572H694.857143c0-48.566857 36.571429-89.709714 36.571428-109.714285s-16.566857-36.571429-36.571428-36.571429h-292.571429c-20.004571 0-36.571429 16.566857-36.571428 36.571429 0 21.138286 36.571429 60.013714 36.571428 109.714285H91.428571A91.684571 91.684571 0 0 0 0 182.857143v621.714286C0 854.857143 41.142857 896 91.428571 896h914.285715C1056 896 1097.142857 854.857143 1097.142857 804.571429z"  horiz-adv-x="1097" />

    
    <glyph glyph-name="chevron-down" unicode="&#58953;" d="M961.718857 434.285714L537.709714 10.861714a36.205714 36.205714 0 0 0-51.419428 0L62.281143 434.285714a36.900571 36.900571 0 0 0 0 52.004572l94.866286 94.281143a36.205714 36.205714 0 0 0 51.419428 0L512 277.138286l303.433143 303.433143a36.205714 36.205714 0 0 0 51.419428 0l94.866286-94.281143a36.900571 36.900571 0 0 0 0-52.004572z"  horiz-adv-x="1024" />

    
    <glyph glyph-name="chevron-up" unicode="&#58956;" d="M961.718857 135.424l-94.866286-94.281143a36.205714 36.205714 0 0 0-51.419428 0L512 344.576l-303.433143-303.433143a36.205714 36.205714 0 0 0-51.419428 0l-94.866286 94.281143a36.900571 36.900571 0 0 0 0 52.004571L486.290286 610.852571a36.205714 36.205714 0 0 0 51.419428 0l424.009143-423.424a36.900571 36.900571 0 0 0 0-52.004571z"  horiz-adv-x="1024" />

    
    <glyph glyph-name="gift" unicode="&#59039;" d="M603.429303 121.161143V530.322286h-182.857143v-409.161143c0-20.004571 16.566857-29.696 36.571429-29.696h109.714285c20.004571 0 36.571429 9.728 36.571429 29.696zM342.857874 603.428571h111.433143L382.281874 695.442286A52.370286 52.370286 0 0 1 342.857874 713.142857a54.857143 54.857143 0 0 1 0-109.714286z m393.142857 54.857143a54.857143 54.857143 0 0 1-54.857142 54.857143c-19.419429 0-33.133714-10.276571-39.424-17.700571L570.295589 603.428571h110.848a54.857143 54.857143 0 0 1 54.857142 54.857143z m214.857143-146.285714v-182.857143c0-10.276571-8.009143-18.285714-18.285714-18.285714H877.715017v-237.714286a54.857143 54.857143 0 0 0-54.857143-54.857143h-621.714285A54.857143 54.857143 0 0 0 146.286446 73.142857V310.857143H91.429303a18.066286 18.066286 0 0 0-18.285714 18.285714v182.857143c0 10.276571 8.009143 18.285714 18.285714 18.285714h251.428571c-70.838857 0-128 57.161143-128 128S272.019017 786.285714 342.857874 786.285714C381.14816 786.285714 416.585874 770.267429 438.857874 742.290286l73.142857-94.281143 73.142858 94.281143C607.415589 770.304 642.853303 786.285714 681.143589 786.285714c70.838857 0 128-57.161143 128-128s-57.161143-128-128-128H932.57216c10.276571 0 18.285714-8.009143 18.285714-18.285714z"  horiz-adv-x="1024" />

    
    <glyph glyph-name="music" unicode="&#59109;" d="M950.857143 768V128c0-80.566857-120.576-109.714286-182.857143-109.714286s-182.857143 29.147429-182.857143 109.714286 120.576 109.714286 182.857143 109.714286c37.705143 0 75.446857-6.838857 109.714286-22.272v306.870857l-438.857143-135.424v-405.138286c0-80.566857-120.576-109.714286-182.857143-109.714286s-182.857143 29.147429-182.857143 109.714286 120.576 109.714286 182.857143 109.714286c37.705143 0 75.446857-6.838857 109.714286-22.272V621.750857c0 23.990857 16.018286 45.129143 38.838857 52.553143l475.428571 146.285714c5.156571 1.718857 10.276571 2.304 16.018286 2.304a54.857143 54.857143 0 0 0 54.857143-54.857143z"  horiz-adv-x="1024" />

    
    <glyph glyph-name="APP" unicode="&#58882;" d="M61.577 274.7V395.508c0 11.07 9.09 20.123 20.229 20.123h213.477l-92.945-161.063H81.805c-11.138 0-20.228 9.023-20.228 20.132z m152.068-247.375l-68.127-46.157c-9.167-6.24-15.65-2.279-14.379 8.715l9.09 78.98c1.266 10.993 10.187 15.497 19.832 9.99l52.725-30.12c9.631-5.527 10.027-15.206 0.86-21.408z m16.36 44.513l-52.724 30.12c-9.64 5.526-13.037 17.872-7.43 27.474L413.996 552.64c5.535 9.62 18.026 12.994 27.657 7.419l52.725-30.06c9.64-5.575 12.963-17.931 7.428-27.513l-244.14-423.247c-5.529-9.602-18.025-12.888-27.66-7.4z m185.816 182.73L508.76 415.63h53.517l75.475-161.062H415.82zM718.528 206.5c-21.107 10.53-126.229 252.003-153.16 315.007-26.962 63.002-108.376 230.71-82.044 243.751 18.74 9.361 85.994-122.701 136.41-201.972 50.349-79.29 155.634-283.715 168.588-306.997 12.886-23.338-12.404-42.794-26.469-48.609-14.075-5.837-22.228-11.633-43.325-1.18z m69.079-110.995l-31.762 49.962c-6.57 10.376-3.159 23.205 7.496 28.69l30.274 15.497c10.676 5.428 24.035 1.043 29.715-9.835l25.058-47.972c5.699-10.856 1.815-24.787-8.463-30.91l-21.648-12.888c-10.277-6.222-24.1-2.84-30.67 7.456z m116.896-131.029c-6.636 21.156-57.303 22.567-79.985 54.445-22.76 31.763-3.95 48.125 3.95 55.68 92.004 51.586 76.035-110.125 76.035-110.125zM951.847 274.7c0-11.11-9.09-20.132-20.229-20.132H824.76c-1.178 6.2-3.092 12.422-6.318 18.239-2.783 4.965-9.815 18.314-19.61 36.958-14.142 26.893-34.458 65.36-56.202 105.865h188.98c11.138 0 20.228-9.052 20.228-20.123V274.7h0.01z"  horiz-adv-x="1024" />

    
    <glyph glyph-name="share-alt" unicode="&#59149;" d="M767.981897 310.857143c101.156571 0 182.857143-81.700571 182.857143-182.857143s-81.700571-182.857143-182.857143-182.857143-182.857143 81.700571-182.857143 182.857143a230.4 230.4 0 0 0 1.133715 19.419429l-205.714286 102.838857A182.637714 182.637714 0 0 0 73.124754 383.963429a182.637714 182.637714 0 0 0 307.419429 133.705142l205.714286 102.838858A216.027429 216.027429 0 0 0 585.124754 639.926857c0 101.156571 81.700571 182.857143 182.857143 182.857143s182.857143-81.700571 182.857143-182.857143a182.637714 182.637714 0 0 0-307.419429-133.705143L437.705326 403.382857c0.585143-6.290286 1.133714-13.129143 1.133714-19.419428s-0.585143-13.129143-1.133714-19.419429l205.714285-102.838857A183.04 183.04 0 0 0 767.981897 310.857143z"  horiz-adv-x="1024" />

    
    <glyph glyph-name="bars" unicode="&#58911;" d="M950.857143 128v-73.142857c0-20.004571-16.566857-36.571429-36.571429-36.571429H109.714286c-20.004571 0-36.571429 16.566857-36.571429 36.571429v73.142857c0 20.004571 16.566857 36.571429 36.571429 36.571429h804.571428c20.004571 0 36.571429-16.566857 36.571429-36.571429z m0 292.571429v-73.142858c0-20.004571-16.566857-36.571429-36.571429-36.571428H109.714286c-20.004571 0-36.571429 16.566857-36.571429 36.571428v73.142858c0 20.004571 16.566857 36.571429 36.571429 36.571428h804.571428c20.004571 0 36.571429-16.566857 36.571429-36.571428z m0 292.571428v-73.142857c0-20.004571-16.566857-36.571429-36.571429-36.571429H109.714286c-20.004571 0-36.571429 16.566857-36.571429 36.571429V713.142857c0 20.004571 16.566857 36.571429 36.571429 36.571429h804.571428c20.004571 0 36.571429-16.566857 36.571429-36.571429z"  horiz-adv-x="1024" />

    
    <glyph glyph-name="thumbs-down" unicode="&#59195;" d="M201.142857 566.857143c0-20.004571-16.566857-36.571429-36.571428-36.571429-20.553143 0-36.571429 16.566857-36.571429 36.571429 0 20.553143 16.018286 36.571429 36.571429 36.571428 20.004571 0 36.571429-16.018286 36.571428-36.571428z m91.428572-292.571429V640c0 20.004571-16.566857 36.571429-36.571429 36.571429H91.428571c-20.004571 0-36.571429-16.566857-36.571428-36.571429v-365.714286c0-20.004571 16.566857-36.571429 36.571428-36.571428h164.571429c20.004571 0 36.571429 16.566857 36.571429 36.571428z m645.156571 85.138286c19.419429-21.723429 31.414857-54.857143 31.414857-85.138286-0.585143-59.428571-50.285714-109.714286-109.714286-109.714285h-158.281142c4.571429-18.285714 10.276571-23.990857 16.566857-36.571429 14.848-29.696 32-62.866286 32-109.714286 0-43.995429 0-146.285714-128-146.285714a36.205714 36.205714 0 0 0-25.709715 10.861714c-24.576 23.990857-31.414857 59.428571-37.705142 93.147429-6.838857 33.133714-13.129143 67.437714-35.437715 89.709714-17.700571 17.700571-37.156571 42.276571-57.709714 68.571429-25.161143 33.133714-80.018286 101.156571-101.156571 102.838857-18.870857 1.718857-34.852571 17.700571-34.852572 36.571428V640c0 20.004571 17.152 35.986286 36.571429 36.571429 20.004571 0.585143 54.272 12.580571 90.294857 25.161142 61.696 21.138286 138.861714 48.018286 220.562286 48.018286h73.728c50.285714-0.585143 87.990857-15.433143 112.566857-44.580571 21.723429-25.709714 31.414857-60.562286 28.013714-103.424 14.299429-13.714286 25.161143-32.585143 30.866286-53.723429 6.290286-22.857143 6.290286-45.714286 0-66.852571 17.152-22.857143 25.709714-49.700571 24.576-78.299429 0-8.009143-2.304-25.161143-8.557715-43.446857z"  horiz-adv-x="1024" />

    
    <glyph glyph-name="thumbs-up" unicode="&#59196;" d="M201.142857 128c0 20.004571-16.566857 36.571429-36.571428 36.571429-20.553143 0-36.571429-16.566857-36.571429-36.571429 0-20.553143 16.018286-36.571429 36.571429-36.571429 20.004571 0 36.571429 16.018286 36.571428 36.571429z m91.428572 292.571429v-365.714286c0-20.004571-16.566857-36.571429-36.571429-36.571429H91.428571c-20.004571 0-36.571429 16.566857-36.571428 36.571429V420.571429c0 20.004571 16.566857 36.571429 36.571428 36.571428h164.571429c20.004571 0 36.571429-16.566857 36.571429-36.571428zM969.142857 420.571429c0-30.281143-11.995429-62.866286-31.414857-85.138286 6.290286-18.285714 8.557714-35.437714 8.557714-43.446857a120.795429 120.795429 0 0 0-24.576-78.299429 120.722286 120.722286 0 0 0 0-66.852571 116.772571 116.772571 0 0 0-30.866285-53.723429c3.437714-42.861714-6.290286-77.714286-28.013715-103.424-24.576-29.147429-62.281143-43.995429-112.566857-44.580571h-73.728c-81.700571 0-158.866286 26.843429-220.562286 48.018285-35.986286 12.580571-70.290286 24.576-90.294857 25.161143-19.419429 0.585143-36.571429 16.566857-36.571428 36.571429V421.156571c0 18.870857 16.018286 34.852571 34.852571 36.571429 21.138286 1.718857 75.995429 69.705143 101.156572 102.838857 20.553143 26.294857 40.009143 50.870857 57.709714 68.571429 22.272 22.272 28.562286 56.576 35.437714 89.709714 6.290286 33.718857 13.129143 69.156571 37.705143 93.147429A36.425143 36.425143 0 0 0 621.677714 822.857143c128 0 128-102.290286 128-146.285714 0-46.848-16.566857-80.018286-32-109.714286-6.290286-12.580571-11.995429-18.285714-16.566857-36.571429h158.281143c59.428571 0 109.714286-50.285714 109.714286-109.714285z"  horiz-adv-x="1024" />

    
    <glyph glyph-name="mail" unicode="&#58884;" d="M885.514 688.142h-747.03c-41.378 0-75.053-33.675-75.053-75.135v-458.074c0-41.485 33.675-75.075 75.053-75.075h747.03c41.55 0 75.054 33.59 75.054 75.075V613.007c-0.001 41.46-33.504 75.135-75.054 75.135z m-17.96-53.8L569.653 370.2c-26-23.193-45.256-34.715-57.654-34.715-12.395 0-31.652 11.522-57.653 34.715L156.444 634.343h711.11z m-748.296-462.68V585.54l232.658-204.068-232.658-209.81z m39.125-38.006l233.532 207.39 38.257-33.59c22.233-19.422 49.616-29.4 81.826-29.4 32.38 0 59.592 9.978 81.911 29.4l38.254 33.59 233.54-207.39h-707.32z m746.388 38.007l-232.66 209.81 232.66 204.067v-413.877z m0 0"  horiz-adv-x="1024" />

    
    <glyph glyph-name="at" unicode="&#58905;" d="M628.589714 453.156571c0 82.285714-42.861714 131.437714-114.870857 131.437715-94.866286 0-196.571429-94.281143-196.571428-246.857143 0-85.138286 42.276571-133.705143 116.553142-133.705143 114.870857 0 194.852571 131.437714 194.852572 249.161143zM950.857143 384c0-177.700571-126.866286-244.553143-235.446857-247.990857-7.424 0-10.276571-0.585143-18.285715-0.585143-35.437714 0-63.414857 10.276571-81.152 30.281143-10.861714 12.580571-17.152 28.562286-18.870857 47.433143-35.437714-44.580571-97.133714-87.990857-174.299428-87.990857-122.843429 0-193.133714 75.995429-193.133715 208.566857 0 182.272 126.281143 330.276571 280.576 330.276571 66.852571 0 120.576-28.562286 149.138286-77.129143l1.133714 10.861715 6.290286 32c0.585143 4.571429 4.571429 10.276571 8.557714 10.276571h67.437715c2.852571 0 5.705143-3.986286 7.424-6.290286 1.718857-1.718857 2.304-6.290286 1.718857-9.142857l-68.571429-350.866286a126.464 126.464 0 0 1-2.852571-27.428571c0-30.866286 9.142857-37.156571 32.585143-37.156571 38.838857 1.133714 164.571429 17.152 164.571428 174.848 0 222.281143-143.433143 365.714286-365.714285 365.714285-201.728 0-365.714286-163.986286-365.714286-365.714285s163.986286-365.714286 365.714286-365.714286a367.177143 367.177143 0 0 1 231.424 82.285714 17.664 17.664 0 0 0 25.709714-2.304l23.442286-28.013714a19.419429 19.419429 0 0 0 3.986285-13.714286 20.004571 20.004571 0 0 0-6.838857-12.580571 441.161143 441.161143 0 0 0-277.723428-98.852572c-241.700571 0-438.857143 197.156571-438.857143 438.857143s197.156571 438.857143 438.857143 438.857143c262.290286 0 438.857143-176.566857 438.857142-438.857143z"  horiz-adv-x="1024" />

    
    <glyph glyph-name="check" unicode="&#58952;" d="M954.843429 572.562286c0-14.299429-5.705143-28.562286-16.018286-38.838857L447.378286 42.276571c-10.276571-10.276571-24.576-16.018286-38.838857-16.018285s-28.562286 5.705143-38.838858 16.018285l-284.562285 284.562286c-10.276571 10.276571-16.018286 24.576-16.018286 38.838857s5.705143 28.562286 16.018286 38.838857l77.714285 77.714286c10.276571 10.276571 24.576 16.018286 38.838858 16.018286s28.562286-5.705143 38.838857-16.018286l168.009143-168.557714 374.857142 375.442286c10.276571 10.276571 24.576 16.018286 38.838858 16.018285s28.562286-5.705143 38.838857-16.018285l77.714285-77.714286c10.276571-10.276571 16.018286-24.576 16.018286-38.838857z"  horiz-adv-x="1024" />

    
    <glyph glyph-name="paper-plane" unicode="&#59114;" d="M1007.993341 889.637049c11.994529-8.557073 17.699244-22.27033 15.431986-36.568686l-146.274744-877.648462a36.641823 36.641823 0 0 0-35.983587-30.278872c-4.571086 0-9.142171 1.133629-13.713257 2.852357l-258.833159 105.720071-138.266201-168.545073a35.508194 35.508194 0 0 0-28.011614-13.128158 32.692405 32.692405 0 0 0-12.579628 2.303827 36.45898 36.45898 0 0 0-23.989058 34.301427v199.409044l493.67726 605.102046L248.644578 184.629353 22.942649 277.184697a36.202999 36.202999 0 0 0-22.855429 31.412501 36.934373 36.934373 0 0 0 18.284343 33.716328l950.785834 548.530289a35.325351 35.325351 0 0 0 18.284343 5.156185c7.423443 0 14.846886-2.303827 20.551601-6.289814z"  horiz-adv-x="1024" />

    
    <glyph glyph-name="shield" unicode="&#59148;" d="M768 347.428571V713.142857h-256v-649.728c29.147429 15.433143 75.995429 42.276571 121.709714 78.299429C694.857143 189.732571 768 264.557714 768 347.428571z m109.714286 438.857143v-438.857143c0-240.566857-336.566857-392.557714-350.866286-398.848-4.571429-2.304-9.728-3.437714-14.848-3.437714s-10.276571 1.133714-14.848 3.437714C482.852571-45.129143 146.285714 106.861714 146.285714 347.428571V786.285714c0 20.004571 16.566857 36.571429 36.571429 36.571429h658.285714c20.004571 0 36.571429-16.566857 36.571429-36.571429z"  horiz-adv-x="1024" />

    
    <glyph glyph-name="bookmark" unicode="&#58926;" d="M811.446857 822.857143c8.557714 0 17.152-1.718857 25.161143-5.156572a63.268571 63.268571 0 0 0 41.142857-58.843428v-736.585143a63.268571 63.268571 0 0 0-41.142857-58.843429 63.158857 63.158857 0 0 0-25.161143-4.571428 69.485714 69.485714 0 0 0-47.433143 18.285714L512 219.428571l-252.013714-242.285714a69.997714 69.997714 0 0 0-47.433143-18.870857c-8.557714 0-17.152 1.718857-25.161143 5.156571a63.268571 63.268571 0 0 0-41.142857 58.843429V758.857143a63.268571 63.268571 0 0 0 41.142857 58.843428c8.009143 3.437714 16.566857 5.156571 25.161143 5.156572h598.857143z"  horiz-adv-x="1024" />

    
    <glyph glyph-name="chain" unicode="&#58948;" d="M868.571429 201.142857c0 14.848-5.705143 28.562286-16.018286 38.838857l-118.857143 118.857143A55.442286 55.442286 0 0 1 694.857143 374.857143c-16.566857 0-29.696-6.290286-41.142857-18.285714 18.870857-18.870857 41.142857-34.852571 41.142857-64a54.857143 54.857143 0 0 0-54.857143-54.857143c-29.147429 0-45.129143 22.272-64 41.142857-11.995429-11.446857-18.870857-24.576-18.870857-41.728 0-14.299429 5.705143-28.562286 16.018286-38.838857l117.723428-118.272c10.276571-10.276571 24.576-15.433143 38.838857-15.433143s28.562286 5.156571 38.838857 14.848l84.004572 83.419428A54.125714 54.125714 0 0 1 868.571429 201.142857zM466.870857 604.013714a55.222857 55.222857 0 0 1-16.018286 38.838857L333.129143 761.124571c-10.276571 10.276571-24.576 16.018286-38.838857 16.018286s-28.562286-5.705143-38.838857-15.433143L171.446857 678.290286a54.272 54.272 0 0 1 0-77.129143l118.857143-118.857143A54.857143 54.857143 0 0 1 329.142857 466.870857c16.566857 0 29.696 5.705143 41.142857 17.700572C351.414857 503.442286 329.142857 519.424 329.142857 548.571429A54.857143 54.857143 0 0 0 384 603.428571c29.147429 0 45.129143-22.272 64-41.142857 11.995429 11.446857 18.870857 24.576 18.870857 41.728zM978.285714 201.142857a163.401143 163.401143 0 0 0-48.566857-116.004571l-84.004571-83.419429a163.328 163.328 0 0 0-116.004572-47.433143 162.377143 162.377143 0 0 0-116.553143 48.566857l-117.723428 118.272a163.328 163.328 0 0 0-47.433143 116.004572c0 45.129143 18.285714 87.990857 50.285714 119.442286l-50.285714 50.285714A165.997714 165.997714 0 0 0 329.142857 356.571429a165.083429 165.083429 0 0 0-116.553143 48.018285l-118.857143 118.857143A162.889143 162.889143 0 0 0 45.714286 640c0 43.446857 17.700571 85.723429 48.566857 116.004571l84.004571 83.419429A163.328 163.328 0 0 0 294.290286 886.857143a162.377143 162.377143 0 0 0 116.553143-48.566857l117.723428-118.272a163.328 163.328 0 0 0 47.433143-116.004572c0-45.129143-18.285714-87.990857-50.285714-119.442285l50.285714-50.285715A165.997714 165.997714 0 0 0 694.857143 484.571429c43.446857 0 85.723429-17.152 116.553143-48.018286l118.857143-118.857143A162.889143 162.889143 0 0 0 978.285714 201.142857z"  horiz-adv-x="1024" />

    
    <glyph glyph-name="check-square-o" unicode="&#58950;" d="M841.142857 364.580571V182.857143c0-90.843429-73.728-164.571429-164.571428-164.571429h-475.428572A164.644571 164.644571 0 0 0 36.571429 182.857143v475.428571C36.571429 749.129143 110.299429 822.857143 201.142857 822.857143h475.428572c22.857143 0 45.714286-4.571429 66.852571-14.299429 5.156571-2.304 9.142857-7.424 10.276571-13.129143a17.956571 17.956571 0 0 0-5.156571-16.566857l-28.013714-28.013714a19.602286 19.602286 0 0 0-13.129143-5.705143c-1.718857 0-3.437714 0.585143-5.156572 1.133714A98.633143 98.633143 0 0 1 676.534857 749.714286h-475.428571a91.684571 91.684571 0 0 1-91.428572-91.428572v-475.428571c0-50.285714 41.142857-91.428571 91.428572-91.428572h475.428571c50.285714 0 91.428571 41.142857 91.428572 91.428572v145.152c0 4.571429 1.718857 9.142857 5.156571 12.580571l36.571429 36.571429a18.249143 18.249143 0 0 0 13.129142 5.705143c2.304 0 4.571429-0.585143 6.838858-1.718857 6.838857-2.852571 11.446857-9.142857 11.446857-16.566858z m131.986286 279.405715L507.977143 178.834286c-18.285714-18.285714-46.848-18.285714-65.133714 0L197.12 424.557714c-18.285714 18.285714-18.285714 46.848 0 65.133715l62.866286 62.866285c18.285714 18.285714 46.848 18.285714 65.133714 0l150.272-150.272L845.092571 771.986286c18.285714 18.285714 46.848 18.285714 65.133715 0l62.866285-62.866286c18.285714-18.285714 18.285714-46.848 0-65.133714z"  horiz-adv-x="1024" />

    
    <glyph glyph-name="check-circle" unicode="&#58951;" d="M806.838857 476.562286c0 9.728-3.437714 19.419429-10.276571 26.294857l-52.004572 51.419428c-6.838857 6.838857-16.018286 10.861714-25.709714 10.861715s-18.870857-3.986286-25.709714-10.861715l-233.142857-232.557714-129.133715 129.133714c-6.838857 6.838857-16.018286 10.861714-25.709714 10.861715s-18.870857-3.986286-25.709714-10.861715l-52.004572-51.419428c-6.838857-6.838857-10.276571-16.566857-10.276571-26.294857s3.437714-18.870857 10.276571-25.709715l206.848-206.848c6.838857-6.838857 16.566857-10.861714 25.709715-10.861714 9.728 0 19.419429 3.986286 26.294857 10.861714l310.272 310.272a35.876571 35.876571 0 0 1 10.276571 25.709715zM950.857143 384c0-242.285714-196.571429-438.857143-438.857143-438.857143S73.142857 141.714286 73.142857 384 269.714286 822.857143 512 822.857143s438.857143-196.571429 438.857143-438.857143z"  horiz-adv-x="1024" />

    
    <glyph glyph-name="chevron-left" unicode="&#58954;" d="M797.147429 724.004571L493.714286 420.571429l303.433143-303.433143a36.205714 36.205714 0 0 0 0-51.419429l-94.866286-94.866286a36.205714 36.205714 0 0 0-51.419429 0L226.852571 394.861714a36.205714 36.205714 0 0 0 0 51.419429L650.861714 870.290286a36.205714 36.205714 0 0 0 51.419429 0l94.866286-94.866286a36.205714 36.205714 0 0 0 0-51.419429z"  horiz-adv-x="1024" />

    
    <glyph glyph-name="chevron-right" unicode="&#58955;" d="M797.147429 394.861714L373.138286-29.147429a36.205714 36.205714 0 0 0-51.419429 0l-94.866286 94.866286a36.205714 36.205714 0 0 0 0 51.419429L530.285714 420.571429 226.852571 724.004571a36.205714 36.205714 0 0 0 0 51.419429L321.718857 870.290286a36.205714 36.205714 0 0 0 51.419429 0l424.009143-424.009143a36.205714 36.205714 0 0 0 0-51.419429z"  horiz-adv-x="1024" />

    
    <glyph glyph-name="close" unicode="&#58963;" d="M851.419429 140.580571c0-14.299429-5.705143-28.562286-16.018286-38.838857l-77.714286-77.714285c-10.276571-10.276571-24.576-16.018286-38.838857-16.018286s-28.562286 5.705143-38.838857 16.018286L512 192.036571l-168.009143-168.009142c-10.276571-10.276571-24.576-16.018286-38.838857-16.018286s-28.562286 5.705143-38.838857 16.018286l-77.714286 77.714285c-10.276571 10.276571-16.018286 24.576-16.018286 38.838857s5.705143 28.562286 16.018286 38.838858L356.608 347.428571l-168.009143 168.009143c-10.276571 10.276571-16.018286 24.576-16.018286 38.838857s5.705143 28.562286 16.018286 38.838858l77.714286 77.714285c10.276571 10.276571 24.576 16.018286 38.838857 16.018286s28.562286-5.705143 38.838857-16.018286L512 502.820571l168.009143 168.009143c10.276571 10.276571 24.576 16.018286 38.838857 16.018286s28.562286-5.705143 38.838857-16.018286l77.714286-77.714285c10.276571-10.276571 16.018286-24.576 16.018286-38.838858s-5.705143-28.562286-16.018286-38.838857L667.392 347.428571l168.009143-168.009142c10.276571-10.276571 16.018286-24.576 16.018286-38.838858z"  horiz-adv-x="1024" />

    
    <glyph glyph-name="code" unicode="&#58967;" d="M352.585143 96.585143l-28.562286-28.562286a18.285714 18.285714 0 0 0-26.294857 0L31.451429 334.299429a18.285714 18.285714 0 0 0 0 26.294857l266.276571 266.276571a18.285714 18.285714 0 0 0 26.294857 0l28.562286-28.562286a18.285714 18.285714 0 0 0 0-26.294857L128 347.428571l224.585143-224.585142a18.285714 18.285714 0 0 0 0-26.294858z m337.700571 609.718857l-213.138285-737.718857a18.139429 18.139429 0 0 0-22.272-12.580572l-35.437715 9.728a18.505143 18.505143 0 0 0-12.580571 22.857143L619.995429 726.308571a18.139429 18.139429 0 0 0 22.272 12.580572l35.437714-9.728a18.505143 18.505143 0 0 0 12.580571-22.857143z m375.442286-372.004571L799.451429 68.022857a18.285714 18.285714 0 0 0-26.294858 0l-28.562285 28.562286a18.285714 18.285714 0 0 0 0 26.294857l224.585143 224.585143-224.585143 224.585143a18.285714 18.285714 0 0 0 0 26.294857l28.562285 28.562286a18.285714 18.285714 0 0 0 26.294858 0l266.276571-266.276572a18.285714 18.285714 0 0 0 0-26.294857z"  horiz-adv-x="1097" />

    
    <glyph glyph-name="cog" unicode="&#58969;" d="M658.286446 384c0 80.566857-65.718857 146.285714-146.285715 146.285714s-146.285714-65.718857-146.285714-146.285714 65.718857-146.285714 146.285714-146.285714 146.285714 65.718857 146.285715 146.285714z m292.571428 62.281143v-126.866286c0-8.557714-6.838857-18.870857-16.018285-20.553143l-105.728-16.018285a324.022857 324.022857 0 0 0-22.272-52.004572c19.419429-28.013714 40.009143-53.138286 61.147428-78.848 3.437714-3.986286 5.705143-9.142857 5.705143-14.299428s-1.718857-9.142857-5.156571-13.129143c-13.714286-18.285714-90.843429-102.290286-110.299429-102.290286a29.074286 29.074286 0 0 0-14.848 5.156571l-78.848 61.696a345.563429 345.563429 0 0 0-52.004571-21.723428c-3.986286-34.852571-7.424-72.009143-16.566858-106.276572a20.955429 20.955429 0 0 0-20.553142-16.018285h-126.866286c-10.276571 0-19.419429 7.424-20.553143 17.152l-16.018286 105.142857a336.237714 336.237714 0 0 0-51.419428 21.138286l-80.566857-61.147429c-3.986286-3.437714-9.142857-5.156571-14.299429-5.156571s-10.276571 2.304-14.299429 6.290285c-30.281143 27.428571-70.290286 62.866286-94.281142 96a22.198857 22.198857 0 0 0 0.585142 26.258286c19.419429 26.294857 40.557714 51.419429 60.013715 78.299429a304.420571 304.420571 0 0 0-23.442286 56.576l-104.557714 15.433142A20.845714 20.845714 0 0 0 73.143589 321.645714v126.866286c0 8.557714 6.838857 18.870857 15.433142 20.553143l106.276572 16.018286c5.705143 18.285714 13.129143 35.437714 22.272 52.553142a1376.548571 1376.548571 0 0 1-61.147429 78.848c-3.437714 3.986286-5.705143 8.557714-5.705143 13.714286s2.304 9.142857 5.156572 13.129143c13.714286 18.870857 90.843429 102.290286 110.299428 102.290286 5.156571 0 10.276571-2.304 14.848-5.705143L359.424731 678.765714a345.563429 345.563429 0 0 0 52.004572 21.723429c3.986286 34.852571 7.424 72.009143 16.566857 106.276571a20.955429 20.955429 0 0 0 20.553143 16.018286h126.866286c10.276571 0 19.419429-7.424 20.553142-17.152l16.018286-105.142857c17.700571-5.705143 34.852571-12.580571 51.419429-21.138286l81.152 61.147429c3.437714 3.437714 8.557714 5.156571 13.714285 5.156571s10.276571-2.304 14.299429-5.705143c30.281143-28.013714 70.290286-63.414857 94.281143-97.133714a19.529143 19.529143 0 0 0 3.986286-12.580571c0-5.156571-1.718857-9.142857-4.571429-13.129143-19.419429-26.294857-40.557714-51.419429-60.013714-78.299429 9.728-18.285714 17.700571-37.156571 23.442285-55.990857l104.557715-16.018286a20.845714 20.845714 0 0 0 16.566857-20.553143z"  horiz-adv-x="1024" />

    
    <glyph glyph-name="commenting" unicode="&#58973;" d="M365.714286 384c0 40.557714-32.585143 73.142857-73.142857 73.142857s-73.142857-32.585143-73.142858-73.142857 32.585143-73.142857 73.142858-73.142857 73.142857 32.585143 73.142857 73.142857z m219.428571 0c0 40.557714-32.585143 73.142857-73.142857 73.142857s-73.142857-32.585143-73.142857-73.142857 32.585143-73.142857 73.142857-73.142857 73.142857 32.585143 73.142857 73.142857z m219.428572 0c0 40.557714-32.585143 73.142857-73.142858 73.142857s-73.142857-32.585143-73.142857-73.142857 32.585143-73.142857 73.142857-73.142857 73.142857 32.585143 73.142858 73.142857z m219.428571 0c0-202.276571-229.156571-365.714286-512-365.714286-41.728 0-82.285714 3.437714-120.576 10.276572-65.133714-65.133714-150.272-109.714286-248.576-130.852572-15.433143-2.852571-32-5.705143-49.152-7.424a18.761143 18.761143 0 0 0-20.004571 13.714286c-2.304 9.142857 4.571429 14.848 11.446857 21.138286 35.986286 33.718857 78.848 60.562286 93.696 181.138285C69.705143 173.129143-0.036571 272.566857-0.036571 384c0 202.276571 229.156571 365.714286 512 365.714286s512-163.437714 512-365.714286z"  horiz-adv-x="1024" />

    
    <glyph glyph-name="comments" unicode="&#58974;" d="M804.571429 457.142857c0-161.718857-180.004571-292.571429-402.285715-292.571428-34.852571 0-68.571429 3.437714-100.571428 9.142857a479.597714 479.597714 0 0 0-158.866286-73.142857 423.497143 423.497143 0 0 0-49.152-9.142858h-1.718857c-8.557714 0-16.566857 6.838857-18.285714 16.566858-2.304 10.861714 5.156571 17.700571 11.446857 25.161142 22.272 25.161143 47.433143 47.433143 66.852571 94.866286C59.428571 281.746286 0 364.580571 0 457.179429c0 161.718857 180.004571 292.571429 402.285714 292.571428s402.285714-130.852571 402.285715-292.571428z m219.428571-146.285714c0-93.147429-59.428571-175.433143-151.990857-229.156572 19.419429-47.433143 44.580571-69.705143 66.852571-94.866285 6.290286-7.424 13.714286-14.299429 11.446857-25.161143-2.304-10.276571-10.861714-17.700571-20.004571-16.566857a423.497143 423.497143 0 0 0-49.152 9.142857 479.597714 479.597714 0 0 0-158.866286 73.142857c-32-5.705143-65.718857-9.142857-100.571428-9.142857-103.424 0-198.290286 28.562286-269.714286 75.446857a746.057143 746.057143 0 0 1 50.285714-2.304c122.843429 0 238.848 35.437714 327.424 99.437714C825.124571 260.534857 877.714286 354.816 877.714286 457.106286c0 29.696-4.571429 58.843429-13.129143 86.857143C961.170286 490.825143 1024 406.235429 1024 310.820571z"  horiz-adv-x="1024" />

    
    <glyph glyph-name="download" unicode="&#58990;" d="M768 128c0 20.004571-16.566857 36.571429-36.571429 36.571429s-36.571429-16.566857-36.571428-36.571429 16.566857-36.571429 36.571428-36.571429 36.571429 16.566857 36.571429 36.571429z m146.285714 0c0 20.004571-16.566857 36.571429-36.571428 36.571429s-36.571429-16.566857-36.571429-36.571429 16.566857-36.571429 36.571429-36.571429 36.571429 16.566857 36.571428 36.571429z m73.142857 128v-182.857143a54.857143 54.857143 0 0 0-54.857142-54.857143h-841.142858A54.857143 54.857143 0 0 0 36.571429 73.142857v182.857143A54.857143 54.857143 0 0 0 91.428571 310.857143h265.728l77.129143-77.714286c21.138286-20.553143 48.566857-32 77.714286-32s56.576 11.446857 77.714286 32L667.428571 310.857143h265.142858a54.857143 54.857143 0 0 0 54.857142-54.857143z m-185.709714 325.156571a35.986286 35.986286 0 0 0-8.009143-40.009142l-256-256c-6.838857-7.424-16.566857-10.861714-25.709714-10.861715s-18.870857 3.437714-25.709714 10.861715l-256 256a35.986286 35.986286 0 0 0-8.009143 40.009142C227.986286 594.285714 241.152 603.428571 256 603.428571h146.285714V859.428571c0 20.004571 16.566857 36.571429 36.571429 36.571429h146.285714c20.004571 0 36.571429-16.566857 36.571429-36.571429v-256h146.285714c14.848 0 28.013714-9.142857 33.718857-22.272z"  horiz-adv-x="1024" />

    
    <glyph glyph-name="edit" unicode="&#58993;" d="M507.428571 219.428571l66.304 66.304-86.857142 86.857143-66.304-66.304V274.285714H475.428571v-54.857143h32zM758.857143 630.857143c-5.156571 5.156571-13.714286 4.571429-18.870857-0.585143l-200.009143-200.009143c-5.156571-5.156571-5.705143-13.714286-0.585143-18.870857s13.714286-4.571429 18.870857 0.585143l200.009143 200.009143c5.156571 5.156571 5.705143 13.714286 0.585143 18.870857zM804.571429 291.437714V182.857143c0-90.843429-73.728-164.571429-164.571429-164.571429h-475.428571A164.644571 164.644571 0 0 0 0 182.857143v475.428571C0 749.129143 73.728 822.857143 164.571429 822.857143h475.428571c22.857143 0 45.714286-4.571429 66.852571-14.299429 5.156571-2.304 9.142857-7.424 10.276572-13.129143a17.956571 17.956571 0 0 0-5.156572-16.566857l-28.013714-28.013714a17.225143 17.225143 0 0 0-18.285714-4.571429A98.633143 98.633143 0 0 1 639.963429 749.714286h-475.428572a91.684571 91.684571 0 0 1-91.428571-91.428572v-475.428571c0-50.285714 41.142857-91.428571 91.428571-91.428572h475.428572c50.285714 0 91.428571 41.142857 91.428571 91.428572v72.009143c0 4.571429 1.718857 9.142857 5.156571 12.580571l36.571429 36.571429c5.705143 5.705143 13.129143 6.838857 20.004571 3.986285s11.446857-9.142857 11.446858-16.566857zM749.714286 713.142857L914.285714 548.571429 530.285714 164.571429H365.714286v164.571428z m253.732571-75.446857L950.893714 585.142857l-164.571428 164.571429 52.553143 52.553143a55.552 55.552 0 0 0 77.714285 0l86.857143-86.857143a55.552 55.552 0 0 0 0-77.714286z"  horiz-adv-x="1024" />

    
    <glyph glyph-name="ellipsis-v" unicode="&#58999;" d="M621.714286 182.857143v-109.714286A54.857143 54.857143 0 0 0 566.857143 18.285714h-109.714286A54.857143 54.857143 0 0 0 402.285714 73.142857v109.714286A54.857143 54.857143 0 0 0 457.142857 237.714286h109.714286A54.857143 54.857143 0 0 0 621.714286 182.857143z m0 292.571428v-109.714285A54.857143 54.857143 0 0 0 566.857143 310.857143h-109.714286A54.857143 54.857143 0 0 0 402.285714 365.714286v109.714285A54.857143 54.857143 0 0 0 457.142857 530.285714h109.714286A54.857143 54.857143 0 0 0 621.714286 475.428571z m0 292.571429v-109.714286A54.857143 54.857143 0 0 0 566.857143 603.428571h-109.714286A54.857143 54.857143 0 0 0 402.285714 658.285714v109.714286A54.857143 54.857143 0 0 0 457.142857 822.857143h109.714286A54.857143 54.857143 0 0 0 621.714286 768z"  horiz-adv-x="1024" />

    
    <glyph glyph-name="eye" unicode="&#59008;" d="M950.857143 347.428571c-54.272 84.004571-128.585143 156.013714-217.709714 201.728A253.915429 253.915429 0 0 0 768 420.571429c0-141.129143-114.870857-256-256-256s-256 114.870857-256 256c0 45.129143 11.995429 89.709714 34.852571 128.585142C201.691429 503.442286 127.414857 431.433143 73.142857 347.428571c97.718857-150.857143 255.414857-256 438.857143-256s341.138286 105.142857 438.857143 256zM539.428571 566.857143a27.794286 27.794286 0 0 1-27.428571 27.428571c-95.414857 0-173.714286-78.299429-173.714286-173.714285 0-14.848 12.580571-27.428571 27.428572-27.428572s27.428571 12.580571 27.428571 27.428572A119.515429 119.515429 0 0 0 512 539.428571a27.794286 27.794286 0 0 1 27.428571 27.428572zM1024 347.428571c0-14.299429-4.571429-27.428571-11.446857-39.424C907.410286 134.875429 714.825143 18.285714 512 18.285714S116.553143 135.424 11.446857 308.004571C4.608 320 0 333.165714 0 347.428571s4.571429 27.428571 11.446857 39.424C116.589714 559.433143 309.174857 676.571429 512 676.571429s395.446857-117.138286 500.553143-289.718858c6.838857-11.995429 11.446857-25.161143 11.446857-39.424z"  horiz-adv-x="1024" />

    
    <glyph glyph-name="file-archive-o" unicode="&#59017;" d="M438.857143 676.571429V749.714286H365.714286v-73.142857h73.142857z m73.142857-73.142858V676.571429h-73.142857v-73.142858h73.142857z m-73.142857-73.142857V603.428571H365.714286v-73.142857h73.142857z m73.142857-73.142857v73.142857h-73.142857v-73.142857h73.142857z m399.981714 221.696c21.138286-21.138286 38.838857-63.414857 38.838857-93.696v-658.285714a54.857143 54.857143 0 0 0-54.857142-54.857143h-768a54.857143 54.857143 0 0 0-54.857143 54.857143v914.285714a54.857143 54.857143 0 0 0 54.857143 54.857143h512c30.281143 0 72.557714-17.700571 93.696-38.838857zM658.285714 818.285714V603.428571h214.857143c-3.437714 9.728-8.557714 19.419429-12.580571 23.442286L681.691429 805.741714c-3.986286 3.986286-13.714286 9.142857-23.442286 12.580572zM877.714286-54.857143V530.285714h-237.714286A54.857143 54.857143 0 0 0 585.142857 585.142857V822.857143h-73.142857v-73.142857h-73.142857V822.857143H146.285714v-877.714286h731.428572z m-358.290286 412.013714c48.566857-163.986286 61.147429-199.424 61.147429-199.424 2.852571-9.728 4.571429-19.419429 4.571428-29.696 0-63.414857-61.696-109.714286-146.285714-109.714285s-146.285714 46.299429-146.285714 109.714285c0 10.276571 1.718857 20.004571 4.571428 29.696 0 0 11.995429 35.437714 68.571429 226.304v73.142858h73.142857v-73.142858h45.129143c16.566857 0 30.866286-10.861714 35.437714-26.843428zM438.857143 91.428571c40.557714 0 73.142857 16.566857 73.142857 36.571429s-32.585143 36.571429-73.142857 36.571429-73.142857-16.566857-73.142857-36.571429 32.585143-36.571429 73.142857-36.571429z"  horiz-adv-x="1024" />

    
    <glyph glyph-name="file-excel-o" unicode="&#59018;" d="M911.981714 678.838857c21.138286-21.138286 38.838857-63.414857 38.838857-93.696v-658.285714a54.857143 54.857143 0 0 0-54.857142-54.857143h-768a54.857143 54.857143 0 0 0-54.857143 54.857143v914.285714a54.857143 54.857143 0 0 0 54.857143 54.857143h512c30.281143 0 72.557714-17.700571 93.696-38.838857zM658.285714 818.285714V603.428571h214.857143c-3.437714 9.728-8.557714 19.419429-12.580571 23.442286L681.691429 805.741714c-3.986286 3.986286-13.714286 9.142857-23.442286 12.580572zM877.714286-54.857143V530.285714h-237.714286A54.857143 54.857143 0 0 0 585.142857 585.142857V822.857143H146.285714v-877.714286h731.428572zM318.281143 78.848V18.285714h160.585143v60.562286H436.004571l58.843429 92.013714c6.838857 10.861714 10.276571 19.419429 11.995429 19.419429h1.133714c0.585143-2.304 1.718857-3.986286 2.852571-5.705143 2.304-4.571429 5.705143-8.009143 9.728-13.714286l61.147429-92.013714h-43.446857V18.285714h166.290285v60.562286h-38.838857l-109.714285 156.013714 111.433142 161.133715h38.290286V457.142857h-159.414857v-61.147428h42.276571l-58.843428-90.843429c-6.838857-10.861714-11.995429-19.419429-11.995429-18.870857h-1.133714c-0.585143 2.304-1.718857 3.986286-2.852571 5.705143a76.982857 76.982857 0 0 1-9.728 13.129143l-60.562286 90.843428h43.446857v61.147429H321.206857v-61.147429h38.838857l107.995429-155.428571-110.848-161.718857H318.354286z"  horiz-adv-x="1024" />

    
    <glyph glyph-name="file-image-o" unicode="&#59019;" d="M911.981714 678.838857c21.138286-21.138286 38.838857-63.414857 38.838857-93.696v-658.285714a54.857143 54.857143 0 0 0-54.857142-54.857143h-768a54.857143 54.857143 0 0 0-54.857143 54.857143v914.285714a54.857143 54.857143 0 0 0 54.857143 54.857143h512c30.281143 0 72.557714-17.700571 93.696-38.838857zM658.285714 818.285714V603.428571h214.857143c-3.437714 9.728-8.557714 19.419429-12.580571 23.442286L681.691429 805.741714c-3.986286 3.986286-13.714286 9.142857-23.442286 12.580572zM877.714286-54.857143V530.285714h-237.714286A54.857143 54.857143 0 0 0 585.142857 585.142857V822.857143H146.285714v-877.714286h731.428572z m-73.142857 256v-182.857143H219.428571v109.714286l109.714286 109.714286 73.142857-73.142857 219.428572 219.428571zM329.142857 310.857143a109.750857 109.750857 0 0 0 0 219.428571 109.750857 109.750857 0 0 0 0-219.428571z"  horiz-adv-x="1024" />

    
    <glyph glyph-name="file-movie-o" unicode="&#59020;" d="M911.981714 678.838857c21.138286-21.138286 38.838857-63.414857 38.838857-93.696v-658.285714a54.857143 54.857143 0 0 0-54.857142-54.857143h-768a54.857143 54.857143 0 0 0-54.857143 54.857143v914.285714a54.857143 54.857143 0 0 0 54.857143 54.857143h512c30.281143 0 72.557714-17.700571 93.696-38.838857zM658.285714 818.285714V603.428571h214.857143c-3.437714 9.728-8.557714 19.419429-12.580571 23.442286L681.691429 805.741714c-3.986286 3.986286-13.714286 9.142857-23.442286 12.580572zM877.714286-54.857143V530.285714h-237.714286A54.857143 54.857143 0 0 0 585.142857 585.142857V822.857143H146.285714v-877.714286h731.428572zM512 457.142857c40.009143 0 73.142857-33.133714 73.142857-73.142857v-219.428571c0-40.009143-33.133714-73.142857-73.142857-73.142858H292.571429c-40.009143 0-73.142857 33.133714-73.142858 73.142858v219.428571c0 40.009143 33.133714 73.142857 73.142858 73.142857h219.428571z m281.161143-1.133714a18.761143 18.761143 0 0 0 11.446857-17.152v-329.142857a18.724571 18.724571 0 0 0-11.446857-17.152 28.16 28.16 0 0 0-6.838857-1.133715 18.944 18.944 0 0 0-13.129143 5.156572l-151.442286 151.990857v51.419429l151.442286 151.990857a19.017143 19.017143 0 0 0 13.129143 5.156571c2.304 0 4.571429-0.585143 6.838857-1.133714z"  horiz-adv-x="1024" />

    
    <glyph glyph-name="file-o" unicode="&#59021;" d="M911.981714 678.838857c21.138286-21.138286 38.838857-63.414857 38.838857-93.696v-658.285714a54.857143 54.857143 0 0 0-54.857142-54.857143h-768a54.857143 54.857143 0 0 0-54.857143 54.857143v914.285714a54.857143 54.857143 0 0 0 54.857143 54.857143h512c30.281143 0 72.557714-17.700571 93.696-38.838857zM658.285714 818.285714V603.428571h214.857143c-3.437714 9.728-8.557714 19.419429-12.580571 23.442286L681.691429 805.741714c-3.986286 3.986286-13.714286 9.142857-23.442286 12.580572zM877.714286-54.857143V530.285714h-237.714286A54.857143 54.857143 0 0 0 585.142857 585.142857V822.857143H146.285714v-877.714286h731.428572z"  horiz-adv-x="1024" />

    
    <glyph glyph-name="file-text-o" unicode="&#59022;" d="M911.981714 678.838857c21.138286-21.138286 38.838857-63.414857 38.838857-93.696v-658.285714a54.857143 54.857143 0 0 0-54.857142-54.857143h-768a54.857143 54.857143 0 0 0-54.857143 54.857143v914.285714a54.857143 54.857143 0 0 0 54.857143 54.857143h512c30.281143 0 72.557714-17.700571 93.696-38.838857zM658.285714 818.285714V603.428571h214.857143c-3.437714 9.728-8.557714 19.419429-12.580571 23.442286L681.691429 805.741714c-3.986286 3.986286-13.714286 9.142857-23.442286 12.580572zM877.714286-54.857143V530.285714h-237.714286A54.857143 54.857143 0 0 0 585.142857 585.142857V822.857143H146.285714v-877.714286h731.428572zM292.571429 438.857143c0 10.276571 8.009143 18.285714 18.285714 18.285714h402.285714c10.276571 0 18.285714-8.009143 18.285714-18.285714v-36.571429c0-10.276571-8.009143-18.285714-18.285714-18.285714h-402.285714a18.066286 18.066286 0 0 0-18.285714 18.285714v36.571429zM713.142857 310.857143c10.276571 0 18.285714-8.009143 18.285714-18.285714v-36.571429c0-10.276571-8.009143-18.285714-18.285714-18.285714h-402.285714a18.066286 18.066286 0 0 0-18.285714 18.285714v36.571429c0 10.276571 8.009143 18.285714 18.285714 18.285714h402.285714z m0-146.285714c10.276571 0 18.285714-8.009143 18.285714-18.285715v-36.571428c0-10.276571-8.009143-18.285714-18.285714-18.285715h-402.285714a18.066286 18.066286 0 0 0-18.285714 18.285715v36.571428c0 10.276571 8.009143 18.285714 18.285714 18.285715h402.285714z"  horiz-adv-x="1024" />

    
    <glyph glyph-name="file-powerpoint-o" unicode="&#59023;" d="M911.981714 678.838857c21.138286-21.138286 38.838857-63.414857 38.838857-93.696v-658.285714a54.857143 54.857143 0 0 0-54.857142-54.857143h-768a54.857143 54.857143 0 0 0-54.857143 54.857143v914.285714a54.857143 54.857143 0 0 0 54.857143 54.857143h512c30.281143 0 72.557714-17.700571 93.696-38.838857zM658.285714 818.285714V603.428571h214.857143c-3.437714 9.728-8.557714 19.419429-12.580571 23.442286L681.691429 805.741714c-3.986286 3.986286-13.714286 9.142857-23.442286 12.580572zM877.714286-54.857143V530.285714h-237.714286A54.857143 54.857143 0 0 0 585.142857 585.142857V822.857143H146.285714v-877.714286h731.428572zM310.857143 78.848V18.285714h186.843428v60.562286h-53.138285v95.414857h78.299428c24.576 0 46.848 1.133714 67.437715 8.557714 51.419429 17.700571 83.419429 70.838857 83.419428 133.156572s-30.866286 110.299429-78.299428 130.304c-21.723429 8.557714-48.018286 10.861714-74.276572 10.861714H310.857143v-61.147428h52.553143v-317.147429H310.857143z m201.728 160h-67.986286v153.161143h68.571429c20.004571 0 35.437714-3.437714 47.433143-10.276572 20.553143-11.995429 32-35.437714 32-65.718857 0-32-11.446857-56.576-35.437715-68.571428-11.995429-5.705143-26.843429-8.557714-44.580571-8.557715z"  horiz-adv-x="1024" />

    
    <glyph glyph-name="file-pdf-o" unicode="&#59024;" d="M911.981714 678.838857c21.138286-21.138286 38.838857-63.414857 38.838857-93.696v-658.285714a54.857143 54.857143 0 0 0-54.857142-54.857143h-768a54.857143 54.857143 0 0 0-54.857143 54.857143v914.285714a54.857143 54.857143 0 0 0 54.857143 54.857143h512c30.281143 0 72.557714-17.700571 93.696-38.838857zM658.285714 818.285714V603.428571h214.857143c-3.437714 9.728-8.557714 19.419429-12.580571 23.442286L681.691429 805.741714c-3.986286 3.986286-13.714286 9.142857-23.442286 12.580572zM877.714286-54.857143V530.285714h-237.714286A54.857143 54.857143 0 0 0 585.142857 585.142857V822.857143H146.285714v-877.714286h731.428572z m-293.705143 338.870857c14.299429-11.446857 30.281143-21.723429 47.981714-32a565.248 565.248 0 0 0 66.852572 3.986286c38.290286 0 86.857143-4.571429 101.156571-28.013714 3.986286-5.705143 7.424-16.018286 1.133714-29.696-0.585143-0.585143-1.133714-1.718857-1.718857-2.304v-0.585143c-1.718857-10.276571-10.276571-21.723429-40.557714-21.723429-36.571429 0-92.013714 16.566857-139.995429 41.728-79.433143-8.557714-162.852571-26.294857-224-47.433143-58.843429-100.571429-104.009143-149.723429-138.276571-149.723428a31.853714 31.853714 0 0 0-16.018286 3.986286l-13.714286 6.838857c-1.718857 0.585143-2.304 1.718857-3.437714 2.852571-2.852571 2.852571-5.156571 9.142857-3.437714 20.553143 5.705143 26.294857 36.571429 70.290286 107.446857 107.446857 4.571429 2.852571 10.276571 1.133714 13.129143-3.437714a4.278857 4.278857 0 0 0 1.133714-2.304 1488.310857 1488.310857 0 0 1 61.147429 112.566857c25.709714 51.419429 45.714286 101.705143 59.428571 149.723429-18.285714 62.281143-23.990857 126.281143-13.714286 163.986285 3.986286 14.299429 12.580571 22.857143 23.990858 22.857143h12.580571c8.557714 0 15.433143-2.852571 20.004571-8.557714 6.838857-8.009143 8.557714-20.553143 5.156572-38.838857-0.585143-1.718857-1.133714-3.437714-2.304-4.571429a12.288 12.288 0 0 0 0.585143-4.571428v-17.152c-0.585143-35.986286-1.133714-70.290286-8.009143-109.714286 20.004571-60.013714 49.700571-108.580571 83.419428-136.009143z m-329.142857-234.861714c17.152 8.009143 41.728 32.585143 78.299428 90.294857-42.861714-33.133714-69.705143-70.838857-78.299428-90.294857z m227.437714 525.714286c-5.705143-16.018286-5.705143-43.446857-1.133714-75.446857 1.718857 9.142857 2.852571 17.700571 3.986285 25.161142 1.133714 9.728 2.852571 17.700571 3.986286 24.576a16.822857 16.822857 0 0 0 2.304 4.571429c-0.585143 0.585143-0.585143 1.718857-1.133714 2.852571-0.585143 10.276571-3.986286 16.566857-7.424 20.553143 0-1.133714-0.585143-1.718857-0.585143-2.304zM411.428571 197.156571a873.472 873.472 0 0 0 162.304 46.299429c-5.705143 4.571429-11.446857 8.557714-16.566857 13.129143-28.013714 24.576-53.138286 58.843429-72.557714 100.571428-10.861714-34.852571-26.843429-72.009143-47.433143-112.566857-8.557714-16.018286-17.152-32-25.709714-47.433143z m369.152 9.142858c-2.852571 2.852571-17.700571 13.714286-80.018285 13.714285 28.013714-10.276571 53.723429-16.018286 70.838857-16.018285 5.156571 0 8.009143 0 10.276571 0.585142 0 0.585143-0.585143 1.133714-1.133714 1.718858z"  horiz-adv-x="1024" />

    
    <glyph glyph-name="file-word-o" unicode="&#59025;" d="M911.981714 678.838857c21.138286-21.138286 38.838857-63.414857 38.838857-93.696v-658.285714a54.857143 54.857143 0 0 0-54.857142-54.857143h-768a54.857143 54.857143 0 0 0-54.857143 54.857143v914.285714a54.857143 54.857143 0 0 0 54.857143 54.857143h512c30.281143 0 72.557714-17.700571 93.696-38.838857zM658.285714 818.285714V603.428571h214.857143c-3.437714 9.728-8.557714 19.419429-12.580571 23.442286L681.691429 805.741714c-3.986286 3.986286-13.714286 9.142857-23.442286 12.580572zM877.714286-54.857143V530.285714h-237.714286A54.857143 54.857143 0 0 0 585.142857 585.142857V822.857143H146.285714v-877.714286h731.428572zM206.299429 457.142857v-61.147428h40.009142L340.004571 18.285714h90.843429l73.142857 277.138286c2.852571 8.557714 4.571429 17.152 5.705143 26.294857 0.585143 4.571429 1.133714 9.142857 1.133714 13.714286h2.304l1.718857-13.714286c1.718857-8.009143 2.304-17.152 5.156572-26.294857l73.142857-277.138286h90.843429l93.696 377.709715h40.009142V457.142857h-171.446857v-61.147428h51.419429l-56.576-250.294858c-2.304-9.142857-3.437714-18.870857-3.986286-26.294857l-1.133714-11.995428h-2.304c0 3.437714-1.133714 8.009143-1.718857 11.995428-1.718857 7.424-2.852571 17.152-5.156572 26.294857L544.512 457.142857h-65.133714l-82.285715-311.442286c-2.304-9.142857-2.852571-18.870857-4.571428-26.294857l-2.304-11.995428h-2.304l-1.133714 11.995428a167.497143 167.497143 0 0 1-3.986286 26.294857L326.217143 395.995429h51.419428V457.142857H206.189714z"  horiz-adv-x="1024" />

    
    <glyph glyph-name="film" unicode="&#59026;" d="M219.428571-18.285714v73.142857c0 20.004571-16.566857 36.571429-36.571428 36.571428H109.714286c-20.004571 0-36.571429-16.566857-36.571429-36.571428v-73.142857c0-20.004571 16.566857-36.571429 36.571429-36.571429h73.142857c20.004571 0 36.571429 16.566857 36.571428 36.571429z m0 219.428571v73.142857c0 20.004571-16.566857 36.571429-36.571428 36.571429H109.714286c-20.004571 0-36.571429-16.566857-36.571429-36.571429v-73.142857c0-20.004571 16.566857-36.571429 36.571429-36.571428h73.142857c20.004571 0 36.571429 16.566857 36.571428 36.571428z m0 219.428572v73.142857c0 20.004571-16.566857 36.571429-36.571428 36.571428H109.714286c-20.004571 0-36.571429-16.566857-36.571429-36.571428v-73.142857c0-20.004571 16.566857-36.571429 36.571429-36.571429h73.142857c20.004571 0 36.571429 16.566857 36.571428 36.571429z m585.142858-438.857143v292.571428c0 20.004571-16.566857 36.571429-36.571429 36.571429H329.142857c-20.004571 0-36.571429-16.566857-36.571428-36.571429v-292.571428c0-20.004571 16.566857-36.571429 36.571428-36.571429h438.857143c20.004571 0 36.571429 16.566857 36.571429 36.571429zM219.428571 640V713.142857c0 20.004571-16.566857 36.571429-36.571428 36.571429H109.714286c-20.004571 0-36.571429-16.566857-36.571429-36.571429v-73.142857c0-20.004571 16.566857-36.571429 36.571429-36.571429h73.142857c20.004571 0 36.571429 16.566857 36.571428 36.571429z m804.571429-658.285714v73.142857c0 20.004571-16.566857 36.571429-36.571429 36.571428h-73.142857c-20.004571 0-36.571429-16.566857-36.571428-36.571428v-73.142857c0-20.004571 16.566857-36.571429 36.571428-36.571429h73.142857c20.004571 0 36.571429 16.566857 36.571429 36.571429z m-219.428571 438.857143V713.142857c0 20.004571-16.566857 36.571429-36.571429 36.571429H329.142857c-20.004571 0-36.571429-16.566857-36.571428-36.571429v-292.571428c0-20.004571 16.566857-36.571429 36.571428-36.571429h438.857143c20.004571 0 36.571429 16.566857 36.571429 36.571429z m219.428571-219.428572v73.142857c0 20.004571-16.566857 36.571429-36.571429 36.571429h-73.142857c-20.004571 0-36.571429-16.566857-36.571428-36.571429v-73.142857c0-20.004571 16.566857-36.571429 36.571428-36.571428h73.142857c20.004571 0 36.571429 16.566857 36.571429 36.571428z m0 219.428572v73.142857c0 20.004571-16.566857 36.571429-36.571429 36.571428h-73.142857c-20.004571 0-36.571429-16.566857-36.571428-36.571428v-73.142857c0-20.004571 16.566857-36.571429 36.571428-36.571429h73.142857c20.004571 0 36.571429 16.566857 36.571429 36.571429z m0 219.428571V713.142857c0 20.004571-16.566857 36.571429-36.571429 36.571429h-73.142857c-20.004571 0-36.571429-16.566857-36.571428-36.571429v-73.142857c0-20.004571 16.566857-36.571429 36.571428-36.571429h73.142857c20.004571 0 36.571429 16.566857 36.571429 36.571429z m73.142857 91.428571v-768c0-50.285714-41.142857-91.428571-91.428571-91.428571h-914.285715A91.684571 91.684571 0 0 0 0-36.571429v768C0 781.714286 41.142857 822.857143 91.428571 822.857143h914.285715C1056 822.857143 1097.142857 781.714286 1097.142857 731.428571z"  horiz-adv-x="1097" />

    
    <glyph glyph-name="folder-o" unicode="&#59030;" d="M914.285714 146.285714v402.285715A54.857143 54.857143 0 0 1 859.428571 603.428571h-402.285714A54.857143 54.857143 0 0 0 402.285714 658.285714v36.571429A54.857143 54.857143 0 0 1 347.428571 749.714286h-182.857142A54.857143 54.857143 0 0 1 109.714286 694.857143v-548.571429A54.857143 54.857143 0 0 1 164.571429 91.428571h694.857142a54.857143 54.857143 0 0 1 54.857143 54.857143z m73.142857 402.285715v-402.285715c0-70.290286-57.709714-128-128-128h-694.857142A128.512 128.512 0 0 0 36.571429 146.285714v548.571429C36.571429 765.147429 94.281143 822.857143 164.571429 822.857143h182.857142C417.718857 822.857143 475.428571 765.147429 475.428571 694.857143V676.571429h384C929.718857 676.571429 987.428571 618.861714 987.428571 548.571429z"  horiz-adv-x="1024" />

    
    <glyph glyph-name="folder-open-o" unicode="&#59031;" d="M1017.709714 363.995429c0 16.018286-17.700571 20.004571-30.281143 20.004571H365.714286c-30.281143 0-70.290286-18.870857-89.709715-42.276571l-168.009142-207.433143c-5.156571-6.838857-10.276571-14.299429-10.276572-22.857143 0-16.018286 17.700571-20.004571 30.281143-20.004572h621.714286c30.281143 0 70.290286 18.870857 89.709714 42.861715l168.009143 207.433143c5.156571 6.290286 10.276571 13.714286 10.276571 22.272zM365.714286 457.142857h438.857143V548.571429A54.857143 54.857143 0 0 1 749.714286 603.428571h-329.142857A54.857143 54.857143 0 0 0 365.714286 658.285714v36.571429A54.857143 54.857143 0 0 1 310.857143 749.714286h-182.857143A54.857143 54.857143 0 0 1 73.142857 694.857143v-487.424l146.285714 180.004571C252.562286 427.995429 313.709714 457.142857 365.714286 457.142857z m725.138285-93.147428c0-25.161143-10.861714-49.152-26.294857-68.571429L896 87.990857c-32.585143-40.009143-94.866286-69.705143-146.285714-69.705143h-621.714286A128.512 128.512 0 0 0 0 146.285714v548.571429C0 765.147429 57.709714 822.857143 128 822.857143h182.857143C381.147429 822.857143 438.857143 765.147429 438.857143 694.857143V676.571429h310.857143C820.004571 676.571429 877.714286 618.861714 877.714286 548.571429V457.142857h109.714285c38.838857 0 77.714286-17.700571 94.866286-54.272 5.705143-11.995429 8.557714-25.161143 8.557714-38.838857z"  horiz-adv-x="1097" />

    
    <glyph glyph-name="github" unicode="&#59044;" d="M512 822.857143c242.285714 0 438.857143-196.571429 438.857143-438.857143 0-193.718857-125.696-358.290286-299.995429-416.585143-22.272-3.986286-30.281143 9.728-30.281143 21.138286 0 14.299429 0.585143 61.696 0.585143 120.576 0 41.142857-13.714286 67.437714-29.696 81.152 97.718857 10.861714 200.557714 48.018286 200.557715 216.576 0 48.018286-17.152 86.857143-45.129143 117.723428 4.571429 11.446857 19.419429 55.990857-4.571429 116.553143-36.571429 11.446857-120.576-45.129143-120.576-45.129143a412.525714 412.525714 0 0 1-219.428571 0S318.317714 652.580571 281.746286 641.133714c-23.990857-60.562286-9.142857-105.142857-4.571429-116.553143-28.013714-30.866286-45.129143-69.705143-45.129143-117.723428 0-168.009143 102.290286-205.714286 200.009143-216.576-12.580571-11.446857-23.990857-30.866286-28.013714-58.843429-25.161143-11.446857-89.161143-30.866286-127.414857 36.571429-23.990857 41.728-67.437714 45.129143-67.437715 45.129143-42.861714 0.585143-2.852571-26.843429-2.852571-26.843429 28.562286-13.129143 48.566857-64 48.566857-64 25.709714-78.299429 148.004571-52.004571 148.004572-52.004571 0-36.571429 0.585143-70.838857 0.585142-81.700572 0-11.446857-8.009143-25.161143-30.281142-21.138285C198.912 25.746286 73.216 190.317714 73.216 384.036571c0 242.285714 196.571429 438.857143 438.857143 438.857143zM239.433143 192.585143c1.133714 2.304-0.585143 5.156571-3.986286 6.838857-3.437714 1.133714-6.290286 0.585143-7.424-1.133714-1.133714-2.304 0.585143-5.156571 3.986286-6.838857 2.852571-1.718857 6.290286-1.133714 7.424 1.133714z m17.700571-19.456c2.304 1.718857 1.718857 5.705143-1.133714 9.142857-2.852571 2.852571-6.838857 3.986286-9.142857 1.718857-2.304-1.718857-1.718857-5.705143 1.133714-9.142857 2.852571-2.852571 6.838857-3.986286 9.142857-1.718857z m17.152-25.709714c2.852571 2.304 2.852571 6.838857 0 10.861714-2.304 3.986286-6.838857 5.705143-9.728 3.437714-2.852571-1.718857-2.852571-6.290286 0-10.276571s7.424-5.705143 9.728-3.986286z m23.990857-23.990858c2.304 2.304 1.133714 7.424-2.304 10.861715-3.986286 3.986286-9.142857 4.571429-11.446857 1.718857-2.852571-2.304-1.718857-7.424 2.304-10.861714 3.986286-3.986286 9.142857-4.571429 11.446857-1.718858z m32.585143-14.299428c1.133714 3.437714-2.304 7.424-7.424 9.142857-4.571429 1.133714-9.728-0.585143-10.861714-3.986286s2.304-7.424 7.424-8.557714c4.571429-1.718857 9.728 0 10.861714 3.437714z m35.986286-2.852572c0 3.986286-4.571429 6.838857-9.728 6.290286-5.156571 0-9.142857-2.852571-9.142857-6.290286 0-3.986286 3.986286-6.838857 9.728-6.290285 5.156571 0 9.142857 2.852571 9.142857 6.290285z m33.133714 5.705143c-0.585143 3.437714-5.156571 5.705143-10.276571 5.156572-5.156571-1.133714-8.557714-4.571429-8.009143-8.557715 0.585143-3.437714 5.156571-5.705143 10.276571-4.571428s8.557714 4.571429 8.009143 8.009143z"  horiz-adv-x="1024" />

    
    <glyph glyph-name="google" unicode="&#59049;" d="M512 446.866286h414.281143c3.986286-22.272 6.838857-43.995429 6.838857-73.142857C933.12 123.428571 765.110857-54.857143 511.963429-54.857143c-242.870857 0-438.857143 195.986286-438.857143 438.857143s195.986286 438.857143 438.857143 438.857143c118.272 0 217.709714-43.446857 294.290285-114.870857L686.811429 593.115429c-32.585143 31.414857-89.709714 67.986286-174.848 67.986285-149.723429 0-272.018286-124.013714-272.018286-277.138285s122.294857-277.138286 272.018286-277.138286c173.714286 0 238.848 124.562286 249.161142 189.147428h-249.161142v150.857143z"  horiz-adv-x="1024" />

    
    <glyph glyph-name="home" unicode="&#59063;" d="M841.142857 329.142857V54.857143c0-20.004571-16.566857-36.571429-36.571428-36.571429h-219.428572v219.428572h-146.285714v-219.428572H219.428571c-20.004571 0-36.571429 16.566857-36.571428 36.571429v274.285714c0 1.133714 0.585143 2.304 0.585143 3.437714L512 603.428571l328.557714-270.848c0.585143-1.133714 0.585143-2.304 0.585143-3.437714z m127.414857 39.424l-35.437714-42.276571a19.017143 19.017143 0 0 0-11.995429-6.290286h-1.718857a17.92 17.92 0 0 0-11.995428 3.986286L511.963429 653.714286 116.516571 323.986286a19.419429 19.419429 0 0 0-13.714285-3.986286 19.017143 19.017143 0 0 0-11.995429 6.290286l-35.437714 42.276571a18.651429 18.651429 0 0 0 2.304 25.709714L468.516571 736.548571c23.990857 20.004571 62.866286 20.004571 86.857143 0l139.446857-116.553142V731.428571c0 10.276571 8.009143 18.285714 18.285715 18.285715h109.714285c10.276571 0 18.285714-8.009143 18.285715-18.285715v-233.142857l125.147428-104.009143c7.424-6.290286 8.557714-18.285714 2.304-25.709714z"  horiz-adv-x="1024" />

    
    <glyph glyph-name="image" unicode="&#59068;" d="M365.714286 566.857143a109.750857 109.750857 0 0 0-219.428572 0 109.750857 109.750857 0 0 0 219.428572 0z m585.142857-219.428572v-256H146.285714v109.714286l182.857143 182.857143 91.428572-91.428571 292.571428 292.571428z m54.857143 402.285715h-914.285715c-9.728 0-18.285714-8.557714-18.285714-18.285715v-694.857142c0-9.728 8.557714-18.285714 18.285714-18.285715h914.285715c9.728 0 18.285714 8.557714 18.285714 18.285715v694.857142c0 9.728-8.557714 18.285714-18.285714 18.285715z m91.428571-18.285715v-694.857142c0-50.285714-41.142857-91.428571-91.428571-91.428572h-914.285715A91.684571 91.684571 0 0 0 0 36.571429v694.857142C0 781.714286 41.142857 822.857143 91.428571 822.857143h914.285715C1056 822.857143 1097.142857 781.714286 1097.142857 731.428571z"  horiz-adv-x="1097" />

    
    <glyph glyph-name="lock" unicode="&#59089;" d="M365.714286 457.142857h292.571428V566.857143c0 80.566857-65.718857 146.285714-146.285714 146.285714S365.714286 647.424 365.714286 566.857143v-109.714286z m475.428571-54.857143v-329.142857a54.857143 54.857143 0 0 0-54.857143-54.857143h-548.571428A54.857143 54.857143 0 0 0 182.857143 73.142857v329.142857A54.857143 54.857143 0 0 0 237.714286 457.142857H256V566.857143c0 140.580571 115.419429 256 256 256s256-115.419429 256-256v-109.714286h18.285714a54.857143 54.857143 0 0 0 54.857143-54.857143z"  horiz-adv-x="1024" />

    
    <glyph glyph-name="plus" unicode="&#59132;" d="M914.285714 475.428571v-109.714285a54.857143 54.857143 0 0 0-54.857143-54.857143H621.714286v-237.714286a54.857143 54.857143 0 0 0-54.857143-54.857143h-109.714286A54.857143 54.857143 0 0 0 402.285714 73.142857V310.857143H164.571429A54.857143 54.857143 0 0 0 109.714286 365.714286v109.714285A54.857143 54.857143 0 0 0 164.571429 530.285714H402.285714V768A54.857143 54.857143 0 0 0 457.142857 822.857143h109.714286A54.857143 54.857143 0 0 0 621.714286 768V530.285714h237.714285a54.857143 54.857143 0 0 0 54.857143-54.857143z"  horiz-adv-x="1024" />

    
    <glyph glyph-name="qrcode" unicode="&#59133;" d="M329.142857 237.714286v-73.142857H256v73.142857h73.142857zM329.142857 676.571429v-73.142858H256V676.571429h73.142857z m438.857143 0v-73.142858h-73.142857V676.571429h73.142857zM182.857143 92.013714h219.428571V310.857143H182.857143v-218.843429zM182.857143 530.285714h219.428571V749.714286H182.857143v-219.428572z m438.857143 0h219.428571V749.714286h-219.428571v-219.428572z m-146.285715-146.285714v-365.714286H109.714286V384h365.714285z m292.571429-292.571429v-73.142857h-73.142857v73.142857h73.142857z m146.285714 0v-73.142857h-73.142857v73.142857h73.142857z m0 292.571429v-219.428571h-219.428571v73.142857h-73.142857v-219.428572h-73.142857V384h219.428571v-73.142857h73.142857v73.142857h73.142857zM475.428571 822.857143v-365.714286H109.714286V822.857143h365.714285z m438.857143 0v-365.714286H548.571429V822.857143h365.714285z"  horiz-adv-x="1024" />

    
    <glyph glyph-name="qq" unicode="&#59134;" d="M154.294857 435.419429c-3.986286 9.728-4.571429 19.419429-4.571428 29.696 0 16.018286 10.276571 41.728 20.004571 53.723428-0.585143 14.848 5.705143 45.129143 17.152 54.857143 0 105.728 81.700571 238.848 177.152 284.562286C422.875429 886.272 484.608 895.963429 549.193143 895.963429c50.285714 0 105.142857-11.995429 151.990857-31.414858 134.290286-56.576 164.571429-161.718857 193.133714-296.009142l0.585143-2.852572c16.566857-25.161143 31.414857-54.857143 31.414857-85.723428 0-15.433143-10.276571-30.866286-10.276571-44.580572 0-1.133714 3.437714-5.705143 3.986286-6.838857 49.152-72.557714 93.696-151.442286 93.696-241.700571 0-20.004571-10.861714-89.709714-42.861715-89.709715-22.272 0-46.848 54.272-54.857143 69.156572-0.585143 0.585143-1.133714 0.585143-1.718857 0.585143l-2.852571-2.304c-18.285714-47.433143-38.290286-92.013714-75.446857-127.414858 32.585143-31.414857 85.138286-28.562286 94.866285-82.870857-2.852571-6.290286-1.718857-13.129143-6.290285-19.419428-32.585143-49.152-119.990857-55.442286-172.580572-55.442286-69.705143 0-126.281143 18.285714-192 37.705143-13.714286 3.986286-34.304 1.718857-49.152 3.437714C475.977143-117.723429 390.838857-128 341.686857-128c-43.446857 0-211.419429 2.852571-211.419428 77.129143 0 32 6.838857 41.142857 29.147428 61.696 17.700571 3.437714 30.866286 13.129143 51.419429 14.299428 2.852571 0 5.156571 0.585143 8.009143 1.133715 0.585143 0.585143 1.133714 0.585143 1.133714 2.304l-1.133714 1.718857c-39.424 9.142857-94.866286 108.580571-103.424 149.723428l-2.852572 1.718858c-3.986286 0-5.705143-8.557714-6.838857-11.446858-12.580571-29.147429-42.276571-60.562286-75.446857-64H29.696c-4.571429 0-2.852571 4.571429-6.290286 5.705143-8.009143 18.870857-13.129143 35.986286-13.129143 57.161143 0 114.285714 54.857143 198.838857 144.018286 266.276572z"  horiz-adv-x="1024" />

    
    <glyph glyph-name="refresh" unicode="&#59138;" d="M936.557714 292.571429c0-1.133714 0-2.852571-0.585143-3.986286C887.405714 86.308571 720.530286-54.857143 509.696-54.857143c-111.433143 0-219.428571 43.995429-300.580571 121.161143l-73.728-73.728A36.425143 36.425143 0 0 0 109.677714-18.285714c-20.004571 0-36.571429 16.566857-36.571428 36.571428v256c0 20.004571 16.566857 36.571429 36.571428 36.571429h256c20.004571 0 36.571429-16.566857 36.571429-36.571429a36.205714 36.205714 0 0 0-10.861714-25.709714l-78.299429-78.299429A292.022857 292.022857 0 0 1 511.926857 91.428571a291.693714 291.693714 0 0 1 249.161143 139.446858c13.714286 22.272 20.553143 43.995429 30.281143 66.852571 2.852571 8.009143 8.557714 13.129143 17.152 13.129143h109.714286c10.276571 0 18.285714-8.557714 18.285714-18.285714zM950.857143 749.714286v-256c0-20.004571-16.566857-36.571429-36.571429-36.571429h-256c-20.004571 0-36.571429 16.566857-36.571428 36.571429a36.205714 36.205714 0 0 0 10.861714 25.709714l78.848 78.848A293.888 293.888 0 0 1 512 676.571429a291.693714 291.693714 0 0 1-249.161143-139.446858c-13.714286-22.272-20.553143-43.995429-30.281143-66.852571-2.852571-8.009143-8.557714-13.129143-17.152-13.129143H101.705143a18.395429 18.395429 0 0 0-18.285714 18.285714v3.986286C132.571429 682.276571 301.129143 822.857143 512 822.857143c112.018286 0 221.147429-44.580571 302.299429-121.161143l74.276571 73.728A36.425143 36.425143 0 0 0 914.285714 786.285714c20.004571 0 36.571429-16.566857 36.571429-36.571428z"  horiz-adv-x="1024" />

    
    <glyph glyph-name="search" unicode="&#59146;" d="M694.838857 420.571429c0 141.129143-114.870857 256-256 256s-256-114.870857-256-256 114.870857-256 256-256 256 114.870857 256 256z m292.571429-475.428572c0-40.009143-33.133714-73.142857-73.142857-73.142857a71.68 71.68 0 0 0-51.419429 21.723429l-195.986286 195.437714a401.225143 401.225143 0 0 0-227.986285-70.838857c-222.281143 0-402.285714 180.004571-402.285715 402.285714s180.004571 402.285714 402.285715 402.285714 402.285714-180.004571 402.285714-402.285714c0-81.152-24.576-161.133714-70.838857-227.986286l195.986285-195.986285c13.129143-13.129143 21.138286-32 21.138286-51.419429z"  horiz-adv-x="1024" />

    
    <glyph glyph-name="sign-out" unicode="&#59153;" d="M420.571429 73.142857c0-16.018286 7.424-54.857143-18.285715-54.857143h-182.857143A164.644571 164.644571 0 0 0 54.857143 182.857143v402.285714C54.857143 675.986286 128.585143 749.714286 219.428571 749.714286h182.857143c9.728 0 18.285714-8.557714 18.285715-18.285715 0-16.018286 7.424-54.857143-18.285715-54.857142h-182.857143A91.684571 91.684571 0 0 1 128 585.142857v-402.285714C128 132.571429 169.142857 91.428571 219.428571 91.428571H384c14.299429 0 36.571429 2.852571 36.571429-18.285714zM950.857143 384a36.205714 36.205714 0 0 0-10.861714-25.709714l-310.857143-310.857143A36.425143 36.425143 0 0 0 603.428571 36.571429c-20.004571 0-36.571429 16.566857-36.571428 36.571428V237.714286H310.857143c-20.004571 0-36.571429 16.566857-36.571429 36.571428v219.428572c0 20.004571 16.566857 36.571429 36.571429 36.571428h256V694.857143c0 20.004571 16.566857 36.571429 36.571428 36.571428a36.205714 36.205714 0 0 0 25.709715-10.861714l310.857143-310.857143A36.425143 36.425143 0 0 0 950.857143 384z"  horiz-adv-x="1024" />

    
    <glyph glyph-name="sort-alpha-asc" unicode="&#59160;" d="M717.129143 662.857143h101.156571L777.142857 787.419429l-6.838857 26.843428c-0.585143 4.571429-1.133714 8.009143-1.133714 11.446857h-2.304l-1.718857-11.446857c-1.718857-6.838857-2.304-15.433143-6.290286-26.843428zM457.142857 73.142857a21.174857 21.174857 0 0 0-5.705143-13.714286L269.165714-122.843429c-3.986286-3.437714-8.557714-5.156571-13.129143-5.156571s-9.142857 1.718857-13.129142 5.156571l-182.857143 182.857143c-5.156571 5.705143-6.838857 13.129143-3.986286 20.004572s9.728 11.446857 17.152 11.446857h109.714286V877.750857c0 10.276571 8.009143 18.285714 18.285714 18.285714h109.714286c10.276571 0 18.285714-8.009143 18.285714-18.285714v-786.285714h109.714286c10.276571 0 18.285714-8.009143 18.285714-18.285714z m477.732572-67.986286V-128h-333.714286v51.419429l210.870857 302.299428a114.102857 114.102857 0 0 0 11.995429 15.433143l6.290285 5.156571v1.718858c-2.304 0-4.571429-0.585143-8.009143-0.585143a72.557714 72.557714 0 0 0-17.152-1.718857h-132.571428v-65.718858h-68.571429V310.857143h323.986286v-50.870857l-210.870857-302.848c-3.437714-5.156571-8.009143-10.276571-11.995429-14.848l-6.290285-6.290286v-1.133714l8.009142 1.133714c5.156571 1.133714 10.276571 1.133714 17.152 1.133714h141.714286V5.12h69.156572z m50.834285 512.548572V457.142857h-164.571428v60.562286h42.861714l-26.843429 82.285714h-138.861714l-26.843428-82.285714h42.861714V457.142857h-163.986286v60.562286h40.009143L721.773714 896h92.562286l131.437714-378.294857h40.009143z"  horiz-adv-x="1024" />

    
    </font>
</defs>
</svg>
